<svg xmlns="http://www.w3.org/2000/svg" xmlns:xlink="http://www.w3.org/1999/xlink" width="1080" zoomAndPan="magnify" viewBox="0 0 810 809.999993" height="1080" preserveAspectRatio="xMidYMid meet" version="1.0"><defs><clipPath id="7f298b42d1"><path d="M 387 56.316406 L 525 56.316406 L 525 194 L 387 194 Z M 387 56.316406 " clip-rule="nonzero"/></clipPath><clipPath id="69c23144ab"><path d="M 58.601562 467 L 196 467 L 196 605 L 58.601562 605 Z M 58.601562 467 " clip-rule="nonzero"/></clipPath><clipPath id="7b533d97a7"><path d="M 58.601562 659 L 771.851562 659 L 771.851562 714.066406 L 58.601562 714.066406 Z M 58.601562 659 " clip-rule="nonzero"/></clipPath><clipPath id="fa1ef9b618"><path d="M 58.601562 631 L 224 631 L 224 714.066406 L 58.601562 714.066406 Z M 58.601562 631 " clip-rule="nonzero"/></clipPath><clipPath id="b256e2a7ce"><path d="M 195 522 L 771.851562 522 L 771.851562 632 L 195 632 Z M 195 522 " clip-rule="nonzero"/></clipPath></defs><rect x="-81" width="972" fill="#ffffff" y="-80.999999" height="971.999992" fill-opacity="1"/><rect x="-81" width="972" fill="#ffffff" y="-80.999999" height="971.999992" fill-opacity="1"/><rect x="-81" width="972" fill="#ffffff" y="-80.999999" height="971.999992" fill-opacity="1"/><g clip-path="url(#7f298b42d1)"><path fill="#00286b" d="M 524.886719 124.832031 C 524.886719 125.953125 524.859375 127.074219 524.804688 128.191406 C 524.75 129.3125 524.667969 130.429688 524.558594 131.546875 C 524.449219 132.664062 524.308594 133.773438 524.144531 134.882812 C 523.980469 135.992188 523.789062 137.097656 523.570312 138.199219 C 523.351562 139.296875 523.105469 140.390625 522.832031 141.480469 C 522.5625 142.566406 522.261719 143.648438 521.9375 144.71875 C 521.609375 145.792969 521.257812 146.855469 520.882812 147.914062 C 520.503906 148.96875 520.097656 150.015625 519.671875 151.050781 C 519.242188 152.085938 518.785156 153.109375 518.308594 154.125 C 517.828125 155.136719 517.324219 156.140625 516.792969 157.128906 C 516.265625 158.117188 515.714844 159.09375 515.136719 160.054688 C 514.558594 161.015625 513.960938 161.964844 513.335938 162.894531 C 512.714844 163.828125 512.066406 164.746094 511.398438 165.644531 C 510.730469 166.546875 510.042969 167.429688 509.328125 168.296875 C 508.617188 169.164062 507.886719 170.011719 507.132812 170.84375 C 506.378906 171.671875 505.605469 172.484375 504.8125 173.277344 C 504.019531 174.070312 503.207031 174.84375 502.375 175.597656 C 501.546875 176.351562 500.695312 177.082031 499.828125 177.792969 C 498.960938 178.503906 498.078125 179.195312 497.175781 179.863281 C 496.277344 180.53125 495.359375 181.175781 494.425781 181.800781 C 493.496094 182.421875 492.546875 183.023438 491.585938 183.597656 C 490.621094 184.175781 489.648438 184.726562 488.65625 185.257812 C 487.667969 185.785156 486.667969 186.289062 485.652344 186.769531 C 484.640625 187.246094 483.613281 187.703125 482.578125 188.132812 C 481.542969 188.558594 480.496094 188.964844 479.4375 189.339844 C 478.382812 189.71875 477.316406 190.070312 476.246094 190.394531 C 475.171875 190.722656 474.089844 191.019531 473.003906 191.292969 C 471.914062 191.566406 470.820312 191.8125 469.71875 192.03125 C 468.621094 192.25 467.515625 192.441406 466.40625 192.605469 C 465.296875 192.769531 464.183594 192.90625 463.066406 193.015625 C 461.949219 193.125 460.832031 193.207031 459.710938 193.265625 C 458.59375 193.320312 457.472656 193.347656 456.347656 193.347656 C 455.226562 193.347656 454.105469 193.320312 452.984375 193.265625 C 451.867188 193.207031 450.746094 193.125 449.632812 193.015625 C 448.515625 192.90625 447.402344 192.769531 446.292969 192.605469 C 445.183594 192.441406 444.078125 192.25 442.976562 192.03125 C 441.878906 191.8125 440.785156 191.566406 439.695312 191.292969 C 438.609375 191.019531 437.527344 190.722656 436.453125 190.394531 C 435.378906 190.070312 434.316406 189.71875 433.257812 189.339844 C 432.203125 188.964844 431.15625 188.558594 430.121094 188.132812 C 429.085938 187.703125 428.058594 187.246094 427.046875 186.769531 C 426.03125 186.289062 425.03125 185.785156 424.039062 185.257812 C 423.050781 184.726562 422.074219 184.175781 421.113281 183.597656 C 420.152344 183.023438 419.203125 182.421875 418.269531 181.800781 C 417.339844 181.175781 416.421875 180.53125 415.519531 179.863281 C 414.621094 179.195312 413.734375 178.503906 412.867188 177.792969 C 412 177.082031 411.152344 176.351562 410.320312 175.597656 C 409.492188 174.84375 408.679688 174.070312 407.886719 173.277344 C 407.09375 172.484375 406.320312 171.671875 405.566406 170.84375 C 404.8125 170.011719 404.078125 169.164062 403.367188 168.296875 C 402.65625 167.429688 401.96875 166.546875 401.296875 165.644531 C 400.628906 164.746094 399.984375 163.828125 399.363281 162.894531 C 398.738281 161.964844 398.136719 161.015625 397.5625 160.054688 C 396.984375 159.09375 396.433594 158.117188 395.902344 157.128906 C 395.375 156.140625 394.871094 155.136719 394.390625 154.125 C 393.910156 153.109375 393.457031 152.085938 393.027344 151.050781 C 392.597656 150.015625 392.195312 148.96875 391.816406 147.914062 C 391.441406 146.855469 391.085938 145.792969 390.761719 144.71875 C 390.4375 143.648438 390.136719 142.566406 389.863281 141.480469 C 389.59375 140.390625 389.347656 139.296875 389.128906 138.199219 C 388.910156 137.097656 388.71875 135.992188 388.550781 134.882812 C 388.386719 133.773438 388.25 132.664062 388.140625 131.546875 C 388.03125 130.429688 387.949219 129.3125 387.894531 128.191406 C 387.839844 127.074219 387.8125 125.953125 387.8125 124.832031 C 387.8125 123.710938 387.839844 122.589844 387.894531 121.46875 C 387.949219 120.347656 388.03125 119.230469 388.140625 118.113281 C 388.25 117 388.386719 115.886719 388.550781 114.777344 C 388.71875 113.667969 388.910156 112.5625 389.128906 111.464844 C 389.347656 110.363281 389.59375 109.269531 389.863281 108.183594 C 390.136719 107.09375 390.4375 106.015625 390.761719 104.941406 C 391.085938 103.867188 391.441406 102.804688 391.816406 101.75 C 392.195312 100.691406 392.597656 99.648438 393.027344 98.609375 C 393.457031 97.574219 393.910156 96.550781 394.390625 95.535156 C 394.871094 94.523438 395.375 93.523438 395.902344 92.53125 C 396.433594 91.542969 396.984375 90.570312 397.5625 89.605469 C 398.136719 88.644531 398.738281 87.699219 399.363281 86.765625 C 399.984375 85.832031 400.628906 84.917969 401.296875 84.015625 C 401.96875 83.117188 402.65625 82.230469 403.367188 81.363281 C 404.078125 80.5 404.8125 79.648438 405.566406 78.820312 C 406.320312 77.988281 407.09375 77.175781 407.886719 76.382812 C 408.679688 75.589844 409.492188 74.816406 410.320312 74.0625 C 411.152344 73.3125 412 72.578125 412.867188 71.867188 C 413.734375 71.15625 414.621094 70.464844 415.519531 69.796875 C 416.421875 69.128906 417.339844 68.484375 418.269531 67.863281 C 419.203125 67.238281 420.152344 66.640625 421.113281 66.0625 C 422.074219 65.488281 423.050781 64.933594 424.039062 64.40625 C 425.03125 63.875 426.03125 63.371094 427.046875 62.894531 C 428.058594 62.414062 429.085938 61.960938 430.121094 61.53125 C 431.15625 61.101562 432.203125 60.699219 433.257812 60.320312 C 434.316406 59.941406 435.378906 59.589844 436.453125 59.265625 C 437.527344 58.941406 438.609375 58.640625 439.695312 58.367188 C 440.785156 58.097656 441.878906 57.851562 442.976562 57.632812 C 444.078125 57.414062 445.183594 57.222656 446.292969 57.058594 C 447.402344 56.890625 448.515625 56.753906 449.632812 56.644531 C 450.746094 56.535156 451.867188 56.453125 452.984375 56.398438 C 454.105469 56.34375 455.226562 56.316406 456.347656 56.316406 C 457.472656 56.316406 458.59375 56.34375 459.710938 56.398438 C 460.832031 56.453125 461.949219 56.535156 463.066406 56.644531 C 464.183594 56.753906 465.296875 56.890625 466.40625 57.058594 C 467.515625 57.222656 468.621094 57.414062 469.71875 57.632812 C 470.820312 57.851562 471.914062 58.097656 473.003906 58.367188 C 474.089844 58.640625 475.171875 58.941406 476.246094 59.265625 C 477.316406 59.589844 478.382812 59.941406 479.4375 60.320312 C 480.496094 60.699219 481.542969 61.101562 482.578125 61.53125 C 483.613281 61.960938 484.640625 62.414062 485.652344 62.894531 C 486.667969 63.371094 487.667969 63.875 488.65625 64.40625 C 489.648438 64.933594 490.621094 65.488281 491.585938 66.0625 C 492.546875 66.640625 493.496094 67.238281 494.425781 67.863281 C 495.359375 68.484375 496.277344 69.128906 497.175781 69.796875 C 498.078125 70.464844 498.960938 71.15625 499.828125 71.867188 C 500.695312 72.578125 501.546875 73.3125 502.375 74.0625 C 503.207031 74.816406 504.019531 75.589844 504.8125 76.382812 C 505.605469 77.175781 506.378906 77.988281 507.132812 78.820312 C 507.886719 79.648438 508.617188 80.5 509.328125 81.363281 C 510.042969 82.230469 510.730469 83.117188 511.398438 84.015625 C 512.066406 84.917969 512.714844 85.832031 513.335938 86.765625 C 513.960938 87.699219 514.558594 88.644531 515.136719 89.605469 C 515.714844 90.570312 516.265625 91.542969 516.792969 92.53125 C 517.324219 93.523438 517.828125 94.523438 518.308594 95.535156 C 518.785156 96.550781 519.242188 97.574219 519.671875 98.609375 C 520.097656 99.648438 520.503906 100.691406 520.882812 101.75 C 521.257812 102.804688 521.609375 103.867188 521.9375 104.941406 C 522.261719 106.015625 522.5625 107.09375 522.832031 108.183594 C 523.105469 109.269531 523.351562 110.363281 523.570312 111.464844 C 523.789062 112.5625 523.980469 113.667969 524.144531 114.777344 C 524.308594 115.886719 524.449219 117 524.558594 118.113281 C 524.667969 119.230469 524.75 120.347656 524.804688 121.46875 C 524.859375 122.589844 524.886719 123.710938 524.886719 124.832031 Z M 524.886719 124.832031 " fill-opacity="1" fill-rule="nonzero"/></g><g clip-path="url(#69c23144ab)"><path fill="#00286b" d="M 195.902344 535.925781 C 195.902344 537.046875 195.875 538.167969 195.820312 539.285156 C 195.765625 540.40625 195.683594 541.523438 195.574219 542.640625 C 195.464844 543.757812 195.328125 544.867188 195.160156 545.976562 C 194.996094 547.085938 194.804688 548.191406 194.585938 549.292969 C 194.367188 550.390625 194.121094 551.484375 193.851562 552.574219 C 193.578125 553.660156 193.277344 554.742188 192.953125 555.8125 C 192.628906 556.886719 192.273438 557.949219 191.898438 559.007812 C 191.519531 560.0625 191.117188 561.109375 190.6875 562.144531 C 190.257812 563.179688 189.804688 564.203125 189.324219 565.21875 C 188.84375 566.230469 188.339844 567.234375 187.8125 568.222656 C 187.28125 569.210938 186.730469 570.1875 186.152344 571.148438 C 185.574219 572.109375 184.976562 573.058594 184.351562 573.988281 C 183.730469 574.921875 183.085938 575.839844 182.417969 576.738281 C 181.746094 577.640625 181.058594 578.523438 180.347656 579.390625 C 179.636719 580.257812 178.902344 581.105469 178.148438 581.9375 C 177.394531 582.765625 176.621094 583.578125 175.828125 584.371094 C 175.035156 585.164062 174.222656 585.9375 173.394531 586.691406 C 172.5625 587.445312 171.710938 588.175781 170.847656 588.886719 C 169.980469 589.597656 169.09375 590.289062 168.195312 590.957031 C 167.292969 591.625 166.375 592.269531 165.445312 592.894531 C 164.511719 593.515625 163.5625 594.117188 162.601562 594.691406 C 161.640625 595.269531 160.664062 595.820312 159.675781 596.351562 C 158.683594 596.878906 157.683594 597.382812 156.667969 597.863281 C 155.65625 598.339844 154.628906 598.796875 153.59375 599.222656 C 152.558594 599.652344 151.511719 600.058594 150.457031 600.433594 C 149.398438 600.8125 148.335938 601.164062 147.261719 601.488281 C 146.1875 601.816406 145.105469 602.113281 144.019531 602.386719 C 142.929688 602.660156 141.835938 602.90625 140.738281 603.125 C 139.636719 603.34375 138.53125 603.535156 137.421875 603.699219 C 136.3125 603.863281 135.199219 604 134.082031 604.109375 C 132.96875 604.21875 131.847656 604.300781 130.730469 604.359375 C 129.609375 604.414062 128.488281 604.441406 127.367188 604.441406 C 126.242188 604.441406 125.121094 604.414062 124.003906 604.359375 C 122.882812 604.300781 121.765625 604.21875 120.648438 604.109375 C 119.53125 604 118.417969 603.863281 117.308594 603.699219 C 116.199219 603.535156 115.09375 603.34375 113.996094 603.125 C 112.894531 602.90625 111.800781 602.660156 110.710938 602.386719 C 109.625 602.113281 108.542969 601.816406 107.46875 601.488281 C 106.398438 601.164062 105.332031 600.8125 104.277344 600.433594 C 103.21875 600.058594 102.171875 599.652344 101.136719 599.222656 C 100.101562 598.796875 99.074219 598.339844 98.0625 597.863281 C 97.046875 597.382812 96.046875 596.878906 95.058594 596.351562 C 94.066406 595.820312 93.09375 595.269531 92.128906 594.691406 C 91.167969 594.117188 90.21875 593.515625 89.289062 592.894531 C 88.355469 592.269531 87.4375 591.625 86.539062 590.957031 C 85.636719 590.289062 84.753906 589.597656 83.886719 588.886719 C 83.019531 588.175781 82.167969 587.445312 81.339844 586.691406 C 80.507812 585.9375 79.695312 585.164062 78.902344 584.371094 C 78.109375 583.578125 77.335938 582.765625 76.582031 581.9375 C 75.828125 581.105469 75.097656 580.257812 74.386719 579.390625 C 73.671875 578.523438 72.984375 577.640625 72.316406 576.738281 C 71.648438 575.839844 71 574.921875 70.378906 573.988281 C 69.753906 573.058594 69.15625 572.109375 68.578125 571.148438 C 68 570.1875 67.449219 569.210938 66.921875 568.222656 C 66.390625 567.234375 65.886719 566.230469 65.40625 565.21875 C 64.929688 564.203125 64.472656 563.179688 64.042969 562.144531 C 63.617188 561.109375 63.210938 560.0625 62.832031 559.007812 C 62.457031 557.949219 62.105469 556.886719 61.777344 555.8125 C 61.453125 554.742188 61.152344 553.660156 60.882812 552.574219 C 60.609375 551.484375 60.363281 550.390625 60.144531 549.292969 C 59.925781 548.191406 59.734375 547.085938 59.570312 545.976562 C 59.40625 544.867188 59.265625 543.757812 59.15625 542.640625 C 59.046875 541.523438 58.964844 540.40625 58.910156 539.285156 C 58.855469 538.167969 58.828125 537.046875 58.828125 535.925781 C 58.828125 534.804688 58.855469 533.683594 58.910156 532.5625 C 58.964844 531.441406 59.046875 530.324219 59.15625 529.207031 C 59.265625 528.09375 59.40625 526.980469 59.570312 525.871094 C 59.734375 524.761719 59.925781 523.65625 60.144531 522.558594 C 60.363281 521.457031 60.609375 520.363281 60.882812 519.277344 C 61.152344 518.1875 61.453125 517.109375 61.777344 516.035156 C 62.105469 514.960938 62.457031 513.898438 62.832031 512.84375 C 63.210938 511.785156 63.617188 510.742188 64.042969 509.703125 C 64.472656 508.667969 64.929688 507.644531 65.40625 506.628906 C 65.886719 505.617188 66.390625 504.613281 66.921875 503.625 C 67.449219 502.636719 68 501.664062 68.578125 500.699219 C 69.15625 499.738281 69.753906 498.792969 70.378906 497.859375 C 71 496.925781 71.648438 496.011719 72.316406 495.109375 C 72.984375 494.210938 73.671875 493.324219 74.386719 492.457031 C 75.097656 491.59375 75.828125 490.742188 76.582031 489.914062 C 77.335938 489.082031 78.109375 488.269531 78.902344 487.476562 C 79.695312 486.683594 80.507812 485.910156 81.339844 485.15625 C 82.167969 484.40625 83.019531 483.671875 83.886719 482.960938 C 84.753906 482.25 85.636719 481.558594 86.539062 480.890625 C 87.4375 480.222656 88.355469 479.578125 89.289062 478.957031 C 90.21875 478.332031 91.167969 477.734375 92.128906 477.15625 C 93.09375 476.578125 94.066406 476.027344 95.058594 475.5 C 96.046875 474.96875 97.046875 474.464844 98.0625 473.988281 C 99.074219 473.507812 100.101562 473.054688 101.136719 472.625 C 102.171875 472.195312 103.21875 471.792969 104.277344 471.414062 C 105.332031 471.035156 106.398438 470.683594 107.46875 470.359375 C 108.542969 470.035156 109.625 469.734375 110.710938 469.460938 C 111.800781 469.191406 112.894531 468.945312 113.996094 468.726562 C 115.09375 468.507812 116.199219 468.316406 117.308594 468.148438 C 118.417969 467.984375 119.53125 467.847656 120.648438 467.738281 C 121.765625 467.628906 122.882812 467.546875 124.003906 467.492188 C 125.121094 467.4375 126.242188 467.410156 127.367188 467.410156 C 128.488281 467.410156 129.609375 467.4375 130.730469 467.492188 C 131.847656 467.546875 132.96875 467.628906 134.082031 467.738281 C 135.199219 467.847656 136.3125 467.984375 137.421875 468.148438 C 138.53125 468.316406 139.636719 468.507812 140.738281 468.726562 C 141.835938 468.945312 142.929688 469.191406 144.019531 469.460938 C 145.105469 469.734375 146.1875 470.035156 147.261719 470.359375 C 148.335938 470.683594 149.398438 471.035156 150.457031 471.414062 C 151.511719 471.792969 152.558594 472.195312 153.59375 472.625 C 154.628906 473.054688 155.65625 473.507812 156.667969 473.988281 C 157.683594 474.464844 158.683594 474.96875 159.675781 475.5 C 160.664062 476.027344 161.640625 476.578125 162.601562 477.15625 C 163.5625 477.734375 164.511719 478.332031 165.445312 478.957031 C 166.375 479.578125 167.292969 480.222656 168.195312 480.890625 C 169.09375 481.558594 169.980469 482.25 170.847656 482.960938 C 171.710938 483.671875 172.5625 484.40625 173.394531 485.15625 C 174.222656 485.910156 175.035156 486.683594 175.828125 487.476562 C 176.621094 488.269531 177.394531 489.082031 178.148438 489.914062 C 178.902344 490.742188 179.636719 491.59375 180.347656 492.457031 C 181.058594 493.324219 181.746094 494.210938 182.417969 495.109375 C 183.085938 496.011719 183.730469 496.925781 184.351562 497.859375 C 184.976562 498.792969 185.574219 499.738281 186.152344 500.699219 C 186.730469 501.664062 187.28125 502.636719 187.8125 503.625 C 188.339844 504.613281 188.84375 505.617188 189.324219 506.628906 C 189.804688 507.644531 190.257812 508.667969 190.6875 509.703125 C 191.117188 510.742188 191.519531 511.785156 191.898438 512.84375 C 192.273438 513.898438 192.628906 514.960938 192.953125 516.035156 C 193.277344 517.109375 193.578125 518.1875 193.851562 519.277344 C 194.121094 520.363281 194.367188 521.457031 194.585938 522.558594 C 194.804688 523.65625 194.996094 524.761719 195.160156 525.871094 C 195.328125 526.980469 195.464844 528.09375 195.574219 529.207031 C 195.683594 530.324219 195.765625 531.441406 195.820312 532.5625 C 195.875 533.683594 195.902344 534.804688 195.902344 535.925781 Z M 195.902344 535.925781 " fill-opacity="1" fill-rule="nonzero"/></g><g clip-path="url(#7b533d97a7)"><path fill="#00286b" d="M 58.828125 659.253906 L 771.625 659.253906 L 771.625 714.066406 L 58.828125 714.066406 Z M 58.828125 659.253906 " fill-opacity="1" fill-rule="nonzero"/></g><g clip-path="url(#fa1ef9b618)"><path fill="#00286b" d="M 223.320312 714.066406 L 58.828125 714.066406 L 58.828125 659.253906 C 58.828125 645.550781 69.792969 631.847656 86.242188 631.847656 L 157.523438 631.847656 C 165.746094 631.847656 171.230469 634.585938 176.714844 640.066406 L 195.902344 659.253906 Z M 223.320312 714.066406 " fill-opacity="1" fill-rule="nonzero"/></g><g clip-path="url(#b256e2a7ce)"><path fill="#00286b" d="M 738.726562 560.589844 L 497.472656 546.886719 L 497.472656 522.222656 L 250.734375 522.222656 C 220.578125 522.222656 195.902344 546.886719 195.902344 577.035156 C 195.902344 607.179688 220.578125 631.847656 250.734375 631.847656 L 278.148438 631.847656 L 278.148438 560.589844 L 442.640625 563.332031 C 472.796875 563.332031 497.472656 574.292969 497.472656 604.441406 C 497.472656 615.402344 494.730469 623.625 489.246094 631.847656 L 735.984375 631.847656 C 755.175781 631.847656 771.625 615.402344 771.625 596.21875 C 771.625 577.035156 757.917969 563.332031 738.726562 560.589844 Z M 738.726562 560.589844 " fill-opacity="1" fill-rule="nonzero"/></g><path fill="#00286b" d="M 442.640625 631.847656 L 250.734375 631.847656 L 250.734375 557.847656 L 442.640625 577.035156 C 459.089844 577.035156 470.058594 587.996094 470.058594 604.441406 C 470.058594 620.882812 459.089844 631.847656 442.640625 631.847656 Z M 442.640625 631.847656 " fill-opacity="1" fill-rule="nonzero"/><path fill="#00286b" d="M 672.929688 412.597656 L 557.785156 412.597656 C 568.75 426.300781 574.234375 450.964844 560.527344 467.410156 C 552.304688 478.371094 538.59375 486.59375 524.886719 486.59375 C 508.4375 486.59375 470.058594 467.410156 470.058594 467.410156 L 415.226562 527.703125 L 456.347656 541.40625 L 505.695312 552.367188 L 555.042969 486.59375 L 675.671875 478.371094 C 692.121094 478.371094 708.570312 461.925781 708.570312 445.484375 C 708.570312 429.039062 692.121094 412.597656 672.929688 412.597656 Z M 672.929688 412.597656 " fill-opacity="1" fill-rule="nonzero"/><path fill="#00286b" d="M 533.113281 415.335938 L 450.867188 366.003906 L 423.449219 264.601562 C 420.710938 250.898438 404.261719 242.675781 390.550781 245.417969 C 376.84375 248.160156 368.621094 264.601562 371.363281 278.304688 L 398.777344 379.707031 C 401.519531 393.410156 412.484375 404.375 423.449219 412.597656 L 505.695312 461.925781 C 511.179688 464.667969 513.921875 464.667969 519.40625 464.667969 C 527.628906 464.667969 538.59375 459.1875 544.078125 450.964844 C 552.304688 440.003906 546.820312 423.558594 533.113281 415.335938 Z M 533.113281 415.335938 " fill-opacity="1" fill-rule="nonzero"/><path fill="#00286b" d="M 450.867188 456.445312 L 415.226562 431.78125 C 387.8125 409.855469 415.226562 355.042969 412.484375 338.597656 C 412.484375 338.597656 415.226562 239.9375 420.710938 261.863281 L 470.058594 363.265625 L 516.664062 385.191406 L 552.304688 385.191406 L 552.304688 311.191406 L 618.097656 385.191406 L 689.378906 385.191406 L 568.75 239.9375 C 557.785156 228.972656 544.078125 220.753906 527.628906 220.753906 L 415.226562 220.753906 C 385.070312 220.753906 360.394531 245.417969 360.394531 275.566406 L 360.394531 494.816406 L 415.226562 494.816406 Z M 450.867188 456.445312 " fill-opacity="1" fill-rule="nonzero"/></svg>