<svg xmlns="http://www.w3.org/2000/svg" xmlns:xlink="http://www.w3.org/1999/xlink" width="1080" zoomAndPan="magnify" viewBox="0 0 810 809.999993" height="1080" preserveAspectRatio="xMidYMid meet" version="1.0"><defs><clipPath id="d3532eaee6"><path d="M 56 425 L 753.472656 425 L 753.472656 783 L 56 783 Z M 56 425 " clip-rule="nonzero"/></clipPath></defs><rect x="-81" width="972" fill="#ffffff" y="-80.999999" height="971.999992" fill-opacity="1"/><rect x="-81" width="972" fill="#ffffff" y="-80.999999" height="971.999992" fill-opacity="1"/><g clip-path="url(#d3532eaee6)"><path fill="#00286b" d="M 56.957031 434.0625 C 57.113281 505.882812 79.359375 576.972656 121.148438 635.492188 C 162.140625 692.898438 219.796875 737.035156 286.054688 761.316406 C 354.253906 786.308594 430.429688 788.902344 500.28125 769.097656 C 567.546875 750.023438 628.617188 710.226562 673.15625 656.316406 C 718.867188 600.984375 746.628906 532.707031 752.296875 461.132812 C 753.011719 452.128906 753.34375 443.097656 753.359375 434.0625 C 753.382812 422.449219 735.339844 422.433594 735.3125 434.0625 C 735.164062 502.46875 713.9375 569.382812 674.402344 625.234375 C 636.28125 679.09375 581.433594 721.210938 519.464844 743.917969 C 454.097656 767.871094 381.824219 770.695312 314.835938 751.695312 C 250.570312 733.476562 192.984375 695.472656 150.375 644.097656 C 107.503906 592.414062 81.152344 527.335938 76.011719 460.390625 C 75.335938 451.628906 75.019531 442.847656 75 434.0625 C 74.976562 422.453125 56.933594 422.433594 56.957031 434.0625 " fill-opacity="1" fill-rule="nonzero"/></g><path fill="#00286b" d="M 435.429688 117.453125 C 431.457031 126.769531 425.957031 135.996094 417.445312 141.835938 C 408.5625 147.929688 397.605469 149.585938 387.148438 147.238281 C 365.558594 142.382812 350.242188 122.269531 348.609375 100.515625 C 347.109375 80.492188 356.035156 56.910156 372.210938 44.300781 C 388.695312 31.453125 410.128906 37.511719 423.753906 51.347656 C 442.179688 70.058594 444.015625 96.015625 434.519531 119.609375 C 432.699219 124.132812 436.503906 129.519531 440.824219 130.707031 C 445.972656 132.125 450.09375 128.945312 451.921875 124.40625 C 463.125 96.570312 459.707031 65.757812 440.1875 42.617188 C 422.804688 22.007812 393.546875 11.925781 368.648438 25.183594 C 345.347656 37.585938 331.324219 67.667969 330.425781 93.109375 C 329.40625 121.992188 346.035156 150.695312 373.15625 161.707031 C 388.386719 167.898438 405.996094 167.921875 420.867188 160.695312 C 434.910156 153.871094 444.996094 140.664062 451.011719 126.5625 C 452.917969 122.085938 452.347656 116.894531 447.777344 114.21875 C 443.980469 111.996094 437.351562 112.945312 435.429688 117.453125 " fill-opacity="1" fill-rule="nonzero"/><path fill="#00286b" d="M 400.59375 160.292969 C 402.628906 190.304688 431.492188 198.5625 455.445312 207.140625 C 478.015625 215.214844 499.121094 224.863281 514.3125 243.753906 C 514.449219 243.917969 514.652344 244.136719 515.328125 245.164062 C 515.800781 245.886719 516.28125 246.605469 516.722656 247.347656 C 517.230469 248.199219 517.691406 249.066406 518.140625 249.953125 C 518.332031 250.324219 518.511719 250.707031 518.6875 251.09375 C 519.808594 253.519531 518.382812 250.222656 518.925781 251.679688 C 520.449219 255.765625 521.382812 260.019531 522.078125 264.320312 C 524.058594 276.585938 524.714844 290.667969 526.089844 303.617188 C 529.835938 338.800781 533.847656 374.296875 543.71875 408.378906 C 554.40625 445.289062 572.425781 479.21875 597.074219 508.679688 C 600.203125 512.421875 606.605469 511.910156 609.835938 508.679688 C 613.535156 504.976562 612.96875 499.671875 609.835938 495.917969 C 589.140625 471.191406 573.511719 442.570312 563.652344 411.878906 C 553.078125 378.964844 548.667969 344.617188 544.875 310.382812 C 543.289062 296.054688 542.324219 281.648438 540.5625 267.34375 C 539.378906 257.761719 537.777344 248.320312 533.140625 239.71875 C 523.492188 221.8125 504.058594 208.394531 486.066406 200.117188 C 471.484375 193.410156 456.171875 188.90625 441.296875 183 C 430.929688 178.886719 419.480469 172.6875 418.640625 160.292969 C 417.859375 148.769531 399.804688 148.683594 400.59375 160.292969 " fill-opacity="1" fill-rule="nonzero"/><path fill="#00286b" d="M 281.8125 271.359375 C 283.0625 302.960938 279.761719 334.457031 271.800781 365.074219 C 267.988281 379.742188 262.925781 394.003906 257.820312 408.257812 C 253.414062 420.554688 248.671875 432.949219 241.207031 443.769531 C 234.644531 453.28125 223.496094 458.964844 213.714844 464.527344 C 202.753906 470.757812 192.464844 477.277344 182.554688 485.089844 C 161.703125 501.523438 141.097656 522.71875 135.257812 549.546875 C 129.6875 575.121094 137.652344 601.804688 159.605469 617.054688 C 182.53125 632.976562 214.445312 633.042969 240.570312 626.421875 C 263.539062 620.601562 285.546875 608.699219 306.183594 597.351562 C 330.773438 583.828125 354.542969 568.875 378.324219 553.992188 C 402.925781 538.605469 427.5 523.039062 453.226562 509.570312 C 479.425781 495.859375 506.726562 484.507812 534.757812 475.117188 C 545.714844 471.445312 541.015625 454.011719 529.964844 457.71875 C 481.925781 473.808594 437.527344 496.21875 394.476562 522.699219 C 349.234375 550.53125 304.6875 582.097656 255.285156 602.265625 C 233.945312 610.980469 210.164062 615.878906 187.363281 609.882812 C 175.519531 606.769531 164.265625 600.453125 157.792969 589.742188 C 152.273438 580.621094 150.558594 569.6875 151.808594 559.171875 C 154.832031 533.773438 174.9375 514.121094 193.90625 498.964844 C 203.429688 491.359375 213.667969 485.34375 224.222656 479.308594 C 234.128906 473.648438 244.679688 467.617188 252.226562 458.871094 C 261.90625 447.65625 267.679688 433.316406 272.828125 419.609375 C 278.363281 404.867188 283.691406 389.949219 287.882812 374.769531 C 297.160156 341.199219 301.234375 306.15625 299.859375 271.359375 C 299.402344 259.78125 281.351562 259.722656 281.8125 271.359375 " fill-opacity="1" fill-rule="nonzero"/><path fill="#00286b" d="M 541.519531 464.25 C 538.976562 452.914062 528.53125 445.839844 517.742188 443.375 C 505.085938 440.496094 493.003906 443.542969 480.867188 447.269531 C 474.496094 449.226562 468 451.390625 461.308594 451.867188 C 453.863281 452.402344 446.476562 451.28125 439.167969 449.976562 C 425.613281 447.558594 412.109375 445.035156 398.375 447.589844 C 385.351562 450.011719 376.3125 457.734375 368.808594 468.246094 C 365.761719 472.511719 362.957031 477.273438 358.730469 480.523438 C 353.898438 484.246094 347.390625 485.417969 341.472656 485.898438 C 328.539062 486.953125 315.675781 486.59375 302.777344 488.382812 C 290.167969 490.132812 277.753906 493.125 265.753906 497.390625 C 238.261719 507.167969 212.90625 522.921875 193 544.375 C 185.113281 552.878906 197.839844 565.667969 205.761719 557.132812 C 221.566406 540.101562 241.046875 526.765625 262.507812 517.867188 C 285.160156 508.46875 308.511719 504.972656 332.859375 504.347656 C 344.496094 504.046875 357.171875 503.199219 367.164062 496.558594 C 376.792969 490.160156 381.058594 479.804688 388.925781 471.828125 C 396.699219 463.945312 408.777344 463.851562 419.089844 464.882812 C 432.554688 466.234375 445.6875 470.46875 459.339844 470.007812 C 474.269531 469.507812 487.402344 462.476562 501.960938 460.417969 C 509.136719 459.40625 522.179688 460.414062 524.117188 469.046875 C 526.652344 480.375 544.058594 475.578125 541.519531 464.25 " fill-opacity="1" fill-rule="nonzero"/><path fill="#00286b" d="M 382.109375 452.082031 C 370.1875 453.332031 357.996094 452.78125 346.273438 450.207031 C 333.171875 447.332031 320.964844 441.167969 307.660156 439.167969 C 300.242188 438.050781 292.59375 437.820312 285.308594 439.941406 C 278.457031 441.933594 270.179688 446.289062 268.132812 453.730469 C 264.964844 465.265625 277.5 471.058594 285.484375 475.933594 C 299.4375 484.453125 313.445312 492.878906 327.472656 501.273438 C 337.460938 507.25 346.546875 491.65625 336.582031 485.691406 C 324.863281 478.679688 313.160156 471.640625 301.488281 464.550781 C 297.894531 462.371094 294.308594 460.183594 290.730469 457.992188 C 289.429688 457.191406 288.128906 456.398438 286.835938 455.589844 C 286.414062 455.332031 285.917969 454.871094 285.453125 454.734375 C 283.640625 454.191406 286.164062 453.160156 285.859375 456.128906 C 285.445312 457.644531 285.035156 459.164062 284.625 460.683594 C 285.601562 458.46875 290.261719 457.011719 293.738281 456.535156 C 298.15625 455.929688 302.816406 456.414062 307.15625 457.324219 C 316.34375 459.246094 325.050781 463.003906 334.039062 465.664062 C 349.425781 470.222656 366.160156 471.796875 382.109375 470.128906 C 386.957031 469.621094 391.132812 466.34375 391.132812 461.109375 C 391.132812 456.621094 386.984375 451.570312 382.109375 452.082031 " fill-opacity="1" fill-rule="nonzero"/><path fill="#00286b" d="M 393.492188 547.734375 C 423.742188 570.433594 456.242188 590.03125 490.40625 606.257812 C 507.964844 614.597656 525.949219 622.105469 544.230469 628.726562 C 562.972656 635.507812 582.15625 642.152344 602.078125 644.253906 C 619.453125 646.085938 638.539062 643.3125 653.070312 633 C 660.160156 627.96875 665.921875 621.59375 669.386719 613.566406 C 673.261719 604.605469 673.324219 595.117188 672.019531 585.601562 C 668.464844 559.691406 655.367188 537.480469 636.195312 519.984375 C 607.753906 494.039062 572.882812 475.15625 537.949219 459.558594 C 533.5 457.574219 528.246094 458.269531 525.605469 462.792969 C 523.351562 466.644531 524.367188 473.144531 528.839844 475.140625 C 558.402344 488.335938 587.878906 503.773438 613.257812 524.078125 C 632.296875 539.308594 647.25 555.925781 652.898438 580.292969 C 655.625 592.070312 656.652344 605.105469 647.464844 614.320312 C 636.578125 625.238281 619.808594 627.601562 605.109375 626.480469 C 587.144531 625.113281 569.480469 618.59375 552.613281 612.609375 C 536.039062 606.726562 519.742188 600.101562 503.789062 592.6875 C 468.066406 576.082031 434.109375 555.800781 402.597656 532.152344 C 398.699219 529.226562 392.515625 531.523438 390.257812 535.390625 C 387.558594 540.003906 389.582031 544.800781 393.492188 547.734375 " fill-opacity="1" fill-rule="nonzero"/><path fill="#00286b" d="M 605.300781 564.210938 C 565.839844 518.785156 501.902344 508.96875 445.664062 500.75 C 440.847656 500.042969 435.96875 501.941406 434.566406 507.050781 C 433.402344 511.292969 436.015625 517.4375 440.863281 518.148438 C 493.890625 525.898438 555.246094 534.042969 592.539062 576.976562 C 600.167969 585.757812 612.886719 572.949219 605.300781 564.210938 " fill-opacity="1" fill-rule="nonzero"/><path fill="#00286b" d="M 182.992188 507.671875 C 205.414062 482.234375 222.816406 453.167969 234.605469 421.367188 C 246.925781 388.136719 252.671875 353.050781 257.582031 318.097656 C 259.707031 303.011719 261.3125 287.859375 263.417969 272.777344 C 264.675781 263.75 266.339844 255.070312 270.332031 248.582031 C 272.402344 245.21875 274.347656 243.222656 277.773438 239.800781 C 280.96875 236.605469 284.933594 232.929688 288.113281 230.515625 C 297.808594 223.175781 309.074219 218.1875 320.402344 213.972656 C 347.238281 203.996094 385.601562 198.75 388.949219 163.808594 C 389.414062 158.957031 384.46875 154.789062 379.929688 154.789062 C 374.660156 154.789062 371.367188 158.9375 370.902344 163.808594 C 369.871094 174.582031 360.4375 180.503906 351.300781 184.332031 C 338.921875 189.515625 325.722656 192.703125 313.179688 197.488281 C 291.859375 205.628906 271.515625 217.019531 257.492188 235.542969 C 244.46875 252.75 244.910156 277.230469 242.304688 297.671875 C 237.964844 331.777344 233.042969 366.207031 223.046875 399.179688 C 212.328125 434.519531 194.679688 467.179688 170.234375 494.914062 C 162.578125 503.597656 175.292969 516.40625 182.992188 507.671875 " fill-opacity="1" fill-rule="nonzero"/><path fill="#00286b" d="M 473.25 271.339844 C 476.042969 334.832031 490.6875 396.957031 515.71875 455.3125 C 517.640625 459.789062 524.226562 460.792969 528.0625 458.546875 C 532.695312 455.84375 533.226562 450.703125 531.300781 446.203125 C 507.589844 390.929688 493.9375 331.417969 491.289062 271.339844 C 490.78125 259.777344 472.730469 259.714844 473.25 271.339844 " fill-opacity="1" fill-rule="nonzero"/><path fill="#00286b" d="M 347.699219 211.589844 C 380.640625 231.332031 424.164062 230.144531 455.265625 207.214844 C 459.183594 204.328125 461.152344 199.394531 458.503906 194.871094 C 456.242188 191.007812 450.105469 188.722656 446.160156 191.632812 C 420.015625 210.90625 384.71875 212.734375 356.804688 196.007812 C 346.820312 190.023438 337.734375 205.621094 347.699219 211.589844 " fill-opacity="1" fill-rule="nonzero"/><path fill="#00286b" d="M 251 459.375 C 259.957031 463.574219 269.441406 465.710938 279.363281 465.152344 C 290.910156 464.496094 290.984375 446.453125 279.363281 447.105469 C 272.710938 447.480469 266.183594 446.640625 260.109375 443.792969 C 255.699219 441.722656 250.378906 442.558594 247.765625 447.027344 C 245.472656 450.941406 246.566406 457.292969 251 459.375 " fill-opacity="1" fill-rule="nonzero"/><path fill="#00286b" d="M 393.625 531.820312 C 386.71875 516.320312 376.574219 502.457031 364.261719 490.800781 C 355.832031 482.820312 343.046875 495.558594 351.5 503.5625 C 362.808594 514.265625 371.699219 526.695312 378.039062 540.929688 C 380.023438 545.382812 386.507812 546.429688 390.382812 544.164062 C 394.972656 541.484375 395.613281 536.289062 393.625 531.820312 " fill-opacity="1" fill-rule="nonzero"/><path fill="#00286b" d="M 328.3125 455.785156 C 367.359375 435.140625 393.003906 393.554688 394.667969 349.535156 C 395.109375 337.921875 377.0625 337.945312 376.621094 349.535156 C 375.1875 387.40625 352.605469 422.542969 319.203125 440.199219 C 308.933594 445.628906 318.039062 461.210938 328.3125 455.785156 " fill-opacity="1" fill-rule="nonzero"/><path fill="#00286b" d="M 410.425781 461.765625 C 430.671875 453.246094 447.464844 439.4375 459.179688 420.761719 C 465.363281 410.894531 449.761719 401.828125 443.597656 411.652344 C 434.597656 426.003906 421.308594 437.765625 405.628906 444.367188 C 401.144531 446.257812 397.917969 450.332031 399.324219 455.46875 C 400.488281 459.699219 405.90625 463.671875 410.425781 461.765625 " fill-opacity="1" fill-rule="nonzero"/><path fill="#00286b" d="M 74.394531 438.503906 C 79.550781 410.867188 97.304688 388.5625 114.246094 367.007812 C 131.949219 344.484375 150.121094 321.136719 156.523438 292.574219 C 151.027344 293.292969 145.53125 294.011719 140.035156 294.726562 C 155.589844 324.777344 165.417969 361.324219 151.0625 393.800781 C 144.785156 408.007812 134.066406 420.277344 119.621094 426.476562 C 106.410156 432.144531 90.796875 432.816406 77.820312 426.195312 C 67.496094 420.925781 58.355469 436.492188 68.714844 441.773438 C 95.777344 455.585938 129.449219 448.230469 150.386719 426.761719 C 172.734375 403.839844 179.125 370.472656 174.457031 339.675781 C 171.585938 320.691406 164.410156 302.601562 155.613281 285.621094 C 152.105469 278.84375 140.800781 280.324219 139.125 287.777344 C 132.96875 315.226562 114.738281 337.34375 97.769531 358.976562 C 80.183594 381.40625 62.347656 405.015625 56.992188 433.707031 C 56.097656 438.492188 58.316406 443.441406 63.292969 444.804688 C 67.691406 446.011719 73.492188 443.316406 74.394531 438.503906 " fill-opacity="1" fill-rule="nonzero"/><path fill="#00286b" d="M 74.929688 432.992188 C 77.53125 378.449219 83.605469 324.140625 93.226562 270.382812 C 88.808594 272.179688 84.390625 273.980469 79.972656 275.777344 C 100.601562 289.589844 113.988281 313.117188 115.371094 337.898438 C 116.015625 349.445312 134.066406 349.519531 133.414062 337.898438 C 131.664062 306.460938 115.238281 277.710938 89.082031 260.195312 C 84.53125 257.152344 76.820312 260.015625 75.828125 265.589844 C 65.925781 320.917969 59.558594 376.851562 56.882812 432.992188 C 56.328125 444.601562 74.375 444.574219 74.929688 432.992188 " fill-opacity="1" fill-rule="nonzero"/><path fill="#00286b" d="M 319.105469 756.726562 C 324.914062 695.132812 362.253906 639.820312 416.785156 610.867188 C 431.960938 602.8125 448.140625 597.074219 464.917969 593.417969 C 476.261719 590.949219 471.464844 573.546875 460.125 576.015625 C 393.882812 590.441406 338.914062 637.804688 314.128906 700.75 C 307.054688 718.703125 302.867188 737.53125 301.058594 756.726562 C 300.597656 761.585938 305.53125 765.753906 310.082031 765.753906 C 315.34375 765.753906 318.644531 761.601562 319.105469 756.726562 " fill-opacity="1" fill-rule="nonzero"/><path fill="#00286b" d="M 648.917969 641.476562 C 653.242188 642.824219 657.15625 645.941406 659.621094 650.242188 C 662.035156 654.46875 667.789062 655.921875 671.964844 653.480469 C 676.214844 650.992188 677.628906 645.378906 675.199219 641.136719 C 670.460938 632.847656 662.800781 626.898438 653.714844 624.078125 C 649.0625 622.632812 643.875 625.789062 642.617188 630.378906 C 641.289062 635.21875 644.25 640.023438 648.917969 641.476562 " fill-opacity="1" fill-rule="nonzero"/><path fill="#00286b" d="M 394.167969 767.296875 C 403.957031 736.410156 425.296875 709.644531 452.933594 692.777344 C 482.171875 674.933594 517.492188 669.421875 550.898438 676.9375 C 570.234375 681.289062 588.804688 689.574219 604.441406 701.855469 C 608.269531 704.863281 613.464844 705.589844 617.199219 701.855469 C 620.328125 698.730469 621.054688 692.121094 617.199219 689.097656 C 585.785156 664.421875 545.332031 652.121094 505.4375 656.460938 C 467.503906 660.589844 432.292969 679.144531 407.335938 708.058594 C 393.566406 724.007812 383.144531 742.398438 376.769531 762.5 C 373.253906 773.59375 390.671875 778.34375 394.167969 767.296875 " fill-opacity="1" fill-rule="nonzero"/><path fill="#00286b" d="M 83.15625 518.46875 C 107.527344 509.539062 133.691406 507.226562 159.160156 512.46875 C 170.496094 514.800781 175.34375 497.414062 163.960938 495.066406 C 135.40625 489.195312 105.777344 491.023438 78.355469 501.066406 C 67.542969 505.03125 72.214844 522.476562 83.15625 518.46875 " fill-opacity="1" fill-rule="nonzero"/><path fill="#00286b" d="M 306.980469 598.546875 C 322.652344 615.921875 333.597656 636.789062 339.316406 659.453125 C 342.15625 670.707031 359.566406 665.941406 356.71875 654.660156 C 350.234375 628.964844 337.472656 605.445312 319.738281 585.78125 C 311.949219 577.144531 299.21875 589.9375 306.980469 598.546875 " fill-opacity="1" fill-rule="nonzero"/><path fill="#00286b" d="M 116.074219 596.941406 C 121.929688 594.269531 128.671875 593.457031 135 594.589844 C 139.796875 595.445312 144.726562 593.289062 146.101562 588.289062 C 147.304688 583.917969 144.621094 578.050781 139.800781 577.183594 C 128.292969 575.128906 117.59375 576.515625 106.964844 581.359375 C 102.527344 583.382812 101.445312 589.800781 103.730469 593.703125 C 106.394531 598.261719 111.621094 598.972656 116.074219 596.941406 " fill-opacity="1" fill-rule="nonzero"/><path fill="#00286b" d="M 230.996094 630.976562 C 259.273438 656.476562 269.261719 697.890625 256.054688 733.542969 C 254.359375 738.113281 257.941406 743.429688 262.355469 744.644531 C 267.398438 746.027344 271.753906 742.925781 273.453125 738.339844 C 288.734375 697.097656 276.382812 647.636719 243.757812 618.214844 C 235.15625 610.457031 222.355469 623.179688 230.996094 630.976562 " fill-opacity="1" fill-rule="nonzero"/><path fill="#00286b" d="M 629.140625 514.128906 C 656.433594 482.425781 696.410156 463.371094 738.3125 462.761719 C 749.914062 462.59375 749.949219 444.546875 738.3125 444.71875 C 691.945312 445.390625 646.679688 466.175781 616.375 501.371094 C 608.835938 510.128906 621.546875 522.949219 629.140625 514.128906 " fill-opacity="1" fill-rule="nonzero"/><path fill="#00286b" d="M 671.769531 564.703125 C 684.445312 550.226562 704.175781 543.554688 722.972656 548.257812 C 734.238281 551.074219 739.046875 533.679688 727.769531 530.855469 C 703.058594 524.671875 675.875 532.683594 659.011719 551.945312 C 651.390625 560.648438 664.105469 573.464844 671.769531 564.703125 " fill-opacity="1" fill-rule="nonzero"/><path fill="#00286b" d="M 739.976562 423.019531 C 708.222656 424.050781 672.367188 421.128906 649.816406 395.878906 C 624.53125 367.5625 624.761719 326.054688 624.714844 290.429688 C 620.191406 293.027344 615.664062 295.625 611.140625 298.222656 C 640.027344 318.675781 675.824219 328.566406 702.746094 351.894531 C 727.320312 373.195312 735.316406 408.058594 734.125 439.464844 C 733.679688 451.074219 751.726562 451.058594 752.171875 439.464844 C 753.207031 412.117188 747.546875 382.367188 732.738281 359.015625 C 717.046875 334.269531 689.761719 320.25 664.351562 307.527344 C 649.238281 299.960938 634.074219 292.433594 620.246094 282.640625 C 614.519531 278.582031 606.664062 284.042969 606.671875 290.429688 C 606.714844 323.421875 607.359375 357.472656 622.636719 387.535156 C 636.296875 414.417969 660.996094 431.402344 690.195312 437.527344 C 706.546875 440.960938 723.328125 441.605469 739.976562 441.066406 C 751.558594 440.6875 751.613281 422.636719 739.976562 423.019531 " fill-opacity="1" fill-rule="nonzero"/><path fill="#00286b" d="M 733.648438 433.421875 C 703.273438 434.808594 671.035156 435.378906 642.507812 423.214844 C 631.140625 418.371094 620.535156 411.449219 611.84375 402.644531 C 607.816406 398.5625 604.285156 394.152344 601.308594 389.25 C 599.78125 386.730469 598.339844 384.109375 597.164062 381.40625 C 596.59375 380.105469 596.101562 378.773438 595.640625 377.425781 C 595.042969 375.671875 595.339844 372.613281 593.960938 375.078125 C 592.882812 376.15625 591.804688 377.234375 590.726562 378.3125 C 589.269531 378.207031 589.371094 378.164062 591.042969 378.1875 C 592.410156 378.207031 593.777344 378.222656 595.140625 378.238281 C 597.878906 378.273438 600.609375 378.304688 603.34375 378.34375 C 608.808594 378.410156 614.273438 378.476562 619.742188 378.546875 C 631.355469 378.6875 631.363281 360.640625 619.742188 360.5 C 610.859375 360.390625 601.976562 360.246094 593.09375 360.171875 C 584.707031 360.097656 576.414062 363.457031 576.269531 373.152344 C 576.167969 379.964844 580.058594 387.710938 583.085938 393.640625 C 586.253906 399.828125 590.347656 405.542969 594.863281 410.816406 C 614.871094 434.175781 644.71875 445.953125 674.550781 449.972656 C 694.167969 452.617188 713.917969 452.367188 733.648438 451.464844 C 745.214844 450.9375 745.277344 432.890625 733.648438 433.421875 " fill-opacity="1" fill-rule="nonzero"/><path fill="#00286b" d="M 140.585938 259.992188 C 152.199219 259.992188 152.214844 241.949219 140.585938 241.949219 C 128.976562 241.949219 128.953125 259.992188 140.585938 259.992188 " fill-opacity="1" fill-rule="nonzero"/><path fill="#00286b" d="M 580.421875 329.265625 C 580.960938 329.265625 581.496094 329.265625 582.035156 329.265625 C 584.347656 329.265625 586.78125 328.265625 588.414062 326.628906 C 589.292969 325.808594 589.917969 324.839844 590.277344 323.722656 C 590.84375 322.644531 591.105469 321.488281 591.054688 320.246094 C 590.953125 317.914062 590.1875 315.492188 588.414062 313.867188 C 586.648438 312.246094 584.480469 311.226562 582.035156 311.226562 C 581.496094 311.226562 580.960938 311.226562 580.421875 311.226562 C 578.109375 311.226562 575.679688 312.230469 574.039062 313.867188 C 573.164062 314.683594 572.542969 315.652344 572.179688 316.769531 C 571.613281 317.847656 571.351562 319.003906 571.402344 320.246094 C 571.507812 322.578125 572.269531 325 574.039062 326.628906 C 575.808594 328.246094 577.976562 329.265625 580.421875 329.265625 " fill-opacity="1" fill-rule="nonzero"/><path fill="#00286b" d="M 108.367188 479.097656 C 119.976562 479.097656 119.996094 461.054688 108.367188 461.054688 C 96.75 461.054688 96.734375 479.097656 108.367188 479.097656 " fill-opacity="1" fill-rule="nonzero"/><path fill="#00286b" d="M 625.535156 462.988281 C 637.144531 462.988281 637.164062 444.941406 625.535156 444.941406 C 613.921875 444.941406 613.90625 462.988281 625.535156 462.988281 " fill-opacity="1" fill-rule="nonzero"/><path fill="#00286b" d="M 177.25 445.257812 C 188.863281 445.257812 188.878906 427.210938 177.25 427.210938 C 165.636719 427.210938 165.617188 445.257812 177.25 445.257812 " fill-opacity="1" fill-rule="nonzero"/><path fill="#00286b" d="M 205.175781 356.320312 C 204.457031 356.320312 203.746094 356.320312 203.027344 356.320312 C 200.714844 356.320312 198.28125 357.328125 196.648438 358.964844 C 195.769531 359.78125 195.148438 360.75 194.78125 361.867188 C 194.214844 362.941406 193.960938 364.105469 194.007812 365.34375 C 194.113281 367.679688 194.875 370.097656 196.648438 371.722656 C 198.414062 373.34375 200.585938 374.367188 203.027344 374.367188 C 203.746094 374.367188 204.457031 374.367188 205.175781 374.367188 C 207.488281 374.367188 209.921875 373.359375 211.558594 371.722656 C 212.433594 370.90625 213.058594 369.9375 213.421875 368.820312 C 213.988281 367.746094 214.246094 366.585938 214.203125 365.34375 C 214.097656 363.007812 213.328125 360.59375 211.558594 358.964844 C 209.792969 357.34375 207.621094 356.320312 205.175781 356.320312 " fill-opacity="1" fill-rule="nonzero"/><path fill="#00286b" d="M 196.582031 303.476562 C 208.195312 303.476562 208.214844 285.429688 196.582031 285.429688 C 184.972656 285.429688 184.953125 303.476562 196.582031 303.476562 " fill-opacity="1" fill-rule="nonzero"/><path fill="#00286b" d="M 589.714844 238.171875 C 589 238.171875 588.285156 238.171875 587.566406 238.171875 C 585.257812 238.171875 582.824219 239.175781 581.191406 240.8125 C 580.308594 241.632812 579.6875 242.601562 579.324219 243.71875 C 578.757812 244.792969 578.5 245.953125 578.546875 247.195312 C 578.652344 249.527344 579.414062 251.949219 581.191406 253.574219 C 582.953125 255.191406 585.125 256.214844 587.566406 256.214844 C 588.285156 256.214844 589 256.214844 589.714844 256.214844 C 592.027344 256.214844 594.460938 255.207031 596.097656 253.574219 C 596.976562 252.753906 597.601562 251.785156 597.960938 250.667969 C 598.527344 249.59375 598.789062 248.4375 598.742188 247.195312 C 598.636719 244.859375 597.867188 242.441406 596.097656 240.8125 C 594.332031 239.195312 592.164062 238.171875 589.714844 238.171875 " fill-opacity="1" fill-rule="nonzero"/></svg>