<svg xmlns="http://www.w3.org/2000/svg" xmlns:xlink="http://www.w3.org/1999/xlink" width="1080" zoomAndPan="magnify" viewBox="0 0 810 809.999993" height="1080" preserveAspectRatio="xMidYMid meet" version="1.0"><defs><clipPath id="0e8311f476"><path d="M 342 69.671875 L 422 69.671875 L 422 740.171875 L 342 740.171875 Z M 342 69.671875 " clip-rule="nonzero"/></clipPath><clipPath id="d35da1ca19"><path d="M 220 311 L 712.167969 311 L 712.167969 430 L 220 430 Z M 220 311 " clip-rule="nonzero"/></clipPath><clipPath id="4256321665"><path d="M 140.667969 507 L 281 507 L 281 618 L 140.667969 618 Z M 140.667969 507 " clip-rule="nonzero"/></clipPath></defs><rect x="-81" width="972" fill="#ffffff" y="-80.999999" height="971.999992" fill-opacity="1"/><rect x="-81" width="972" fill="#ffffff" y="-80.999999" height="971.999992" fill-opacity="1"/><path fill="#00286b" d="M 346.957031 322.847656 C 346.890625 321.601562 346.820312 320.367188 346.765625 319.136719 C 346.730469 317.910156 346.539062 316.703125 346.425781 315.507812 C 346.28125 314.316406 346.1875 313.128906 346 311.972656 C 345.808594 310.808594 345.625 309.667969 345.429688 308.527344 C 345.34375 307.964844 345.246094 307.394531 345.148438 306.832031 C 345.03125 306.277344 344.910156 305.722656 344.789062 305.179688 C 342.949219 296.367188 340.25 288.59375 337.390625 281.941406 C 334.5 275.300781 331.449219 269.757812 328.558594 265.445312 C 328.222656 264.890625 327.851562 264.367188 327.492188 263.878906 L 327.265625 263.566406 C 326.90625 262.769531 326.550781 261.976562 326.175781 261.148438 C 325.683594 260.023438 325.15625 258.882812 324.617188 257.710938 C 324.070312 256.53125 323.53125 255.363281 322.90625 254.097656 C 320.519531 249.050781 317.519531 243.816406 314.113281 238.449219 C 310.699219 233.078125 306.796875 227.648438 302.523438 222.257812 C 300.421875 219.519531 298.164062 216.867188 295.867188 214.195312 C 294.710938 212.859375 293.546875 211.519531 292.382812 210.179688 C 291.179688 208.871094 289.972656 207.550781 288.769531 206.226562 C 286.3125 203.625 283.878906 200.964844 281.316406 198.429688 C 278.78125 195.867188 276.21875 193.320312 273.648438 190.796875 C 271.054688 188.300781 268.414062 185.835938 265.828125 183.390625 C 263.351562 181.023438 260.351562 178.347656 257.460938 176.019531 C 256.726562 175.417969 255.996094 174.839844 255.25 174.269531 C 254.519531 173.699219 253.789062 173.121094 253.035156 172.574219 C 251.539062 171.472656 250.023438 170.4375 248.511719 169.402344 C 245.46875 167.359375 242.402344 165.441406 239.277344 163.730469 C 238.492188 163.304688 237.710938 162.878906 236.941406 162.460938 C 236.15625 162.058594 235.367188 161.660156 234.589844 161.257812 C 233.039062 160.445312 231.449219 159.722656 229.882812 159.023438 C 226.726562 157.652344 223.570312 156.40625 220.4375 155.371094 C 214.144531 153.34375 207.953125 151.988281 202.074219 151.609375 C 196.210938 151.210938 190.742188 151.636719 186.078125 152.839844 C 181.414062 154.011719 177.628906 155.851562 174.8125 157.683594 C 174.097656 158.109375 173.46875 158.621094 172.867188 159.039062 C 172.265625 159.480469 171.71875 159.890625 171.230469 160.347656 C 170.746094 160.792969 170.304688 161.191406 169.898438 161.5625 C 169.695312 161.746094 169.503906 161.921875 169.328125 162.085938 L 168.867188 162.582031 C 168.289062 163.207031 167.863281 163.714844 167.574219 164.042969 C 167.285156 164.375 167.132812 164.550781 167.132812 164.550781 L 167.0625 164.621094 C 166.910156 164.808594 166.894531 165.078125 167.046875 165.28125 C 167.214844 165.503906 167.542969 165.554688 167.769531 165.386719 C 167.769531 165.386719 168.484375 164.855469 169.832031 163.851562 C 169.992188 163.730469 170.179688 163.59375 170.363281 163.457031 C 170.554688 163.335938 170.765625 163.214844 170.972656 163.078125 C 171.398438 162.816406 171.863281 162.527344 172.371094 162.210938 C 172.859375 161.882812 173.445312 161.609375 174.054688 161.296875 C 174.675781 161.007812 175.292969 160.628906 176.015625 160.347656 C 178.808594 159.089844 182.425781 158.019531 186.664062 157.507812 C 190.910156 156.984375 195.785156 157.175781 200.996094 158.042969 C 206.21875 158.894531 211.734375 160.613281 217.363281 162.894531 C 220.167969 164.074219 223.007812 165.378906 225.84375 166.855469 C 228.671875 168.347656 231.519531 169.945312 234.339844 171.714844 C 237.160156 173.480469 239.960938 175.367188 242.730469 177.375 C 245.484375 179.402344 248.214844 181.535156 250.867188 183.800781 C 253.539062 186.050781 256.070312 188.460938 258.640625 190.941406 C 261.191406 193.40625 263.761719 195.890625 266.324219 198.363281 C 271.472656 203.3125 276.554688 208.308594 281.460938 213.320312 C 286.359375 218.339844 291.066406 223.390625 295.464844 228.410156 C 299.867188 233.429688 303.980469 238.402344 307.632812 243.300781 C 311.285156 248.191406 314.609375 252.929688 317.363281 257.492188 C 320.175781 262.03125 322.671875 266.265625 325.042969 269.925781 C 327.332031 273.636719 329.484375 276.777344 331.210938 279.386719 C 331.515625 279.871094 331.820312 280.304688 332.125 280.738281 L 332.292969 281.164062 C 332.566406 281.964844 332.847656 282.777344 333.128906 283.605469 C 335.410156 290.183594 337.359375 297.835938 338.53125 306.261719 C 338.605469 306.785156 338.683594 307.316406 338.765625 307.84375 C 338.8125 308.375 338.863281 308.914062 338.917969 309.449219 C 339.023438 310.527344 339.128906 311.621094 339.230469 312.710938 C 339.328125 313.804688 339.335938 314.914062 339.390625 316.027344 C 339.425781 317.144531 339.519531 318.277344 339.472656 319.402344 C 339.449219 320.535156 339.433594 321.667969 339.40625 322.816406 C 339.417969 323.386719 339.359375 323.957031 339.3125 324.535156 C 339.261719 325.105469 339.214844 325.675781 339.167969 326.253906 C 339.117188 326.824219 339.078125 327.402344 339.03125 327.988281 C 338.984375 328.566406 338.863281 329.128906 338.78125 329.707031 C 338.695312 330.277344 338.605469 330.847656 338.515625 331.425781 L 338.378906 332.292969 L 338.316406 332.726562 L 338.300781 332.832031 L 338.292969 332.847656 L 338.242188 333.074219 C 338.105469 333.691406 337.980469 334.300781 337.84375 334.917969 C 337.707031 335.515625 337.546875 335.988281 337.402344 336.535156 C 337.273438 337.046875 337.078125 337.601562 336.894531 338.148438 C 336.726562 338.695312 336.535156 339.234375 336.316406 339.761719 C 335.496094 341.914062 334.476562 343.988281 333.242188 345.957031 C 330.777344 349.90625 327.417969 353.425781 323.492188 356.8125 C 319.574219 360.210938 315.101562 363.496094 310.621094 367.335938 C 308.386719 369.253906 306.148438 371.3125 304.027344 373.585938 C 302.964844 374.71875 301.929688 375.898438 300.933594 377.132812 C 300.445312 377.753906 299.9375 378.363281 299.472656 379.015625 L 298.589844 380.21875 L 298.324219 380.613281 L 298.027344 381.0625 C 297.234375 382.257812 296.4375 383.457031 295.644531 384.660156 L 294.453125 386.460938 C 294.054688 387.085938 293.667969 387.800781 293.28125 388.476562 C 292.503906 389.839844 291.722656 391.207031 290.945312 392.570312 C 290.753906 392.917969 290.550781 393.253906 290.367188 393.601562 L 289.859375 394.636719 L 288.847656 396.714844 C 288.199219 398.105469 287.46875 399.472656 286.875 400.902344 L 285.125 405.207031 C 284.835938 405.929688 284.527344 406.636719 284.265625 407.367188 L 283.523438 409.574219 L 282.0625 414 C 280.394531 419.976562 278.957031 426.054688 278.160156 432.183594 C 277.640625 435.246094 277.460938 438.320312 277.15625 441.378906 C 277.078125 442.152344 277.054688 442.914062 277.019531 443.679688 L 276.933594 445.976562 L 276.835938 448.265625 L 276.796875 449.414062 L 276.804688 450.554688 C 276.84375 453.589844 276.8125 456.632812 277.042969 459.621094 C 277.140625 461.121094 277.191406 462.625 277.324219 464.109375 C 277.488281 465.589844 277.648438 467.066406 277.808594 468.535156 L 278.058594 470.746094 C 278.160156 471.476562 278.273438 472.199219 278.378906 472.929688 C 278.585938 474.375 278.828125 475.820312 279.058594 477.257812 C 279.285156 478.695312 279.597656 480.101562 279.886719 481.515625 C 280.183594 482.921875 280.441406 484.34375 280.777344 485.722656 C 283.390625 496.824219 286.945312 507.160156 290.832031 516.664062 C 291.316406 517.84375 291.78125 519.039062 292.269531 520.195312 C 292.777344 521.351562 293.273438 522.5 293.773438 523.640625 C 294.75 525.921875 295.773438 528.140625 296.765625 530.324219 C 297.769531 532.5 298.808594 534.613281 299.8125 536.695312 C 300.804688 538.773438 301.828125 540.789062 302.839844 542.757812 C 306.851562 550.644531 310.773438 557.703125 314.328125 563.914062 C 317.871094 570.113281 321.082031 575.445312 323.742188 579.832031 C 326.398438 584.21875 328.535156 587.648438 330.011719 589.976562 C 331.472656 592.3125 332.292969 593.542969 332.292969 593.542969 L 332.300781 593.550781 C 332.503906 593.855469 332.871094 594.015625 333.25 593.929688 C 333.722656 593.816406 334.019531 593.332031 333.90625 592.851562 C 333.90625 592.851562 333.5625 591.414062 332.847656 588.738281 C 332.15625 586.046875 331.023438 582.152344 329.5 577.238281 C 327.972656 572.3125 326.023438 566.386719 323.683594 559.65625 C 321.363281 552.917969 318.691406 545.367188 315.78125 537.191406 C 315.070312 535.152344 314.335938 533.0625 313.589844 530.933594 C 312.84375 528.8125 312.089844 526.652344 311.359375 524.445312 C 310.601562 522.253906 309.824219 520.027344 309.09375 517.753906 C 308.355469 515.480469 307.574219 513.191406 306.851562 510.855469 C 303.914062 501.515625 301.039062 491.691406 298.574219 481.515625 C 296.109375 471.355469 294.09375 460.816406 293.234375 450.046875 C 292.40625 439.277344 293.128906 428.296875 295.609375 417.679688 L 296.703125 413.742188 L 297.242188 411.765625 C 297.441406 411.117188 297.683594 410.484375 297.90625 409.832031 L 299.25 405.96875 C 299.707031 404.691406 300.292969 403.453125 300.804688 402.195312 L 301.601562 400.304688 L 302.003906 399.367188 C 302.140625 399.0625 302.300781 398.773438 302.445312 398.484375 C 303.039062 397.292969 303.632812 396.113281 304.226562 394.933594 C 304.53125 394.339844 304.789062 393.761719 305.136719 393.148438 L 306.234375 391.285156 C 306.964844 390.050781 307.695312 388.8125 308.425781 387.574219 L 308.699219 387.109375 L 308.773438 386.996094 L 308.796875 386.949219 L 308.859375 386.851562 L 309.382812 386.066406 C 309.71875 385.527344 310.105469 385.015625 310.476562 384.5 C 311.222656 383.464844 312.015625 382.460938 312.851562 381.472656 C 314.523438 379.503906 316.335938 377.601562 318.257812 375.730469 C 322.09375 371.996094 326.382812 368.410156 330.488281 364.386719 C 334.589844 360.378906 338.5 355.816406 341.296875 350.628906 C 342.699219 348.050781 343.824219 345.351562 344.667969 342.636719 L 344.980469 341.617188 L 345.246094 340.597656 C 345.421875 339.90625 345.609375 339.25 345.734375 338.527344 C 345.871094 337.828125 346.042969 337.082031 346.144531 336.429688 C 346.234375 335.8125 346.320312 335.183594 346.417969 334.566406 L 346.449219 334.332031 L 346.484375 334.117188 L 346.492188 333.988281 L 346.539062 333.488281 L 346.621094 332.503906 C 346.675781 331.84375 346.730469 331.183594 346.789062 330.535156 C 346.828125 329.882812 346.917969 329.226562 346.925781 328.582031 C 346.933594 327.941406 346.941406 327.296875 346.949219 326.65625 C 346.957031 326.011719 346.964844 325.378906 346.972656 324.742188 C 346.980469 324.109375 346.996094 323.472656 346.957031 322.847656 " fill-opacity="1" fill-rule="nonzero"/><g clip-path="url(#0e8311f476)"><path fill="#00286b" d="M 420.972656 70.496094 C 420.746094 70.023438 420.175781 69.824219 419.703125 70.046875 C 419.703125 70.046875 419.09375 70.34375 417.902344 70.90625 C 417.308594 71.230469 416.539062 71.679688 415.671875 72.234375 C 415.261719 72.53125 414.8125 72.851562 414.339844 73.195312 C 413.863281 73.542969 413.40625 73.984375 412.902344 74.410156 C 410.925781 76.207031 408.765625 78.792969 407.054688 82.257812 C 405.296875 85.6875 403.957031 89.941406 403.152344 94.761719 C 402.324219 99.589844 402.042969 104.988281 402.1875 110.816406 C 402.339844 116.65625 402.960938 122.921875 403.859375 129.539062 C 403.972656 130.367188 404.09375 131.195312 404.203125 132.039062 C 404.332031 132.871094 404.453125 133.714844 404.582031 134.566406 C 404.839844 136.261719 405.097656 137.980469 405.367188 139.714844 C 405.914062 143.203125 406.484375 146.777344 407.070312 150.453125 C 407.359375 152.277344 407.648438 154.132812 407.90625 155.996094 C 408.1875 157.859375 408.421875 159.746094 408.644531 161.652344 C 408.902344 163.5625 409.023438 165.472656 409.222656 167.417969 C 409.304688 168.382812 409.34375 169.351562 409.410156 170.332031 C 409.457031 171.3125 409.535156 172.292969 409.527344 173.28125 C 409.542969 174.261719 409.554688 175.25 409.570312 176.242188 C 409.585938 177.230469 409.503906 178.226562 409.480469 179.222656 C 409.457031 181.222656 409.207031 183.214844 409.03125 185.230469 C 408.507812 189.246094 407.800781 193.3125 406.605469 197.335938 C 406.300781 198.339844 406.058594 199.359375 405.714844 200.363281 C 405.359375 201.367188 405.007812 202.371094 404.65625 203.375 L 404.125 204.894531 L 403.507812 206.386719 C 403.089844 207.382812 402.671875 208.386719 402.253906 209.398438 L 401.941406 210.144531 L 401.609375 210.84375 L 401.242188 211.617188 L 400.902344 212.265625 L 400.558594 212.917969 L 400.164062 213.601562 C 399.917969 214.058594 399.644531 214.515625 399.363281 214.972656 C 398.246094 216.789062 397 218.585938 395.660156 220.410156 C 393.003906 224.066406 389.949219 227.75 387.132812 232.089844 C 385.71875 234.257812 384.394531 236.625 383.316406 239.230469 C 382.226562 241.832031 381.4375 244.707031 381.15625 247.695312 C 380.859375 250.675781 381.054688 253.726562 381.679688 256.601562 L 382.175781 258.667969 L 382.652344 260.472656 C 382.964844 261.679688 383.285156 262.882812 383.597656 264.09375 C 383.886719 265.277344 384.167969 266.457031 384.457031 267.644531 C 384.738281 268.828125 385.035156 270.015625 385.269531 271.210938 C 385.511719 272.410156 385.757812 273.605469 386.007812 274.800781 C 386.25 276 386.410156 277.195312 386.609375 278.390625 C 387.066406 280.792969 387.238281 283.195312 387.519531 285.597656 C 387.628906 286.800781 387.644531 288.007812 387.710938 289.203125 C 387.773438 290.40625 387.855469 291.613281 387.789062 292.816406 C 387.765625 294.023438 387.742188 295.226562 387.710938 296.429688 C 387.679688 297.644531 387.5 298.839844 387.40625 300.046875 L 387.238281 301.851562 L 387.195312 302.300781 L 387.179688 302.457031 L 387.171875 302.542969 L 387.003906 303.507812 C 386.785156 304.792969 386.578125 306.109375 386.34375 307.363281 C 386.070312 308.488281 385.792969 309.621094 385.519531 310.753906 C 385.398438 311.296875 385.230469 311.910156 385.042969 312.519531 L 384.53125 314.34375 L 384.007812 316.164062 L 383.429688 318.027344 C 383.054688 319.28125 382.667969 320.535156 382.28125 321.796875 C 380.699219 326.847656 379.070312 332.246094 378.042969 338.011719 L 377.65625 340.179688 L 377.609375 340.445312 C 377.574219 340.664062 377.601562 340.355469 377.535156 340.992188 L 377.480469 341.488281 L 377.382812 342.492188 L 377.175781 344.492188 L 377.078125 345.496094 C 377.054688 345.859375 377.054688 346.269531 377.039062 346.660156 C 377.007812 348.21875 376.941406 349.828125 376.964844 351.359375 L 377.199219 355.785156 C 377.703125 361.664062 378.820312 367.367188 380.21875 372.886719 C 383.019531 383.9375 386.996094 394.234375 390.175781 404.320312 C 390.5625 405.574219 390.980469 406.835938 391.324219 408.089844 L 392.382812 411.824219 L 393.308594 415.527344 L 394.0625 419.300781 C 394.375 420.691406 394.496094 421.824219 394.679688 423.035156 C 394.847656 424.242188 395.050781 425.398438 395.171875 426.699219 L 395.554688 430.523438 L 395.804688 434.386719 C 396.085938 439.550781 396.207031 444.753906 396.132812 450.03125 C 396.132812 451.339844 396.101562 452.664062 396.078125 453.992188 L 396.046875 455.972656 L 396.03125 456.464844 C 396.03125 456.707031 396.03125 456.40625 396.03125 456.535156 L 396.015625 456.785156 L 395.972656 457.789062 L 395.886719 459.804688 C 395.871094 460.125 395.859375 460.503906 395.828125 460.777344 L 395.75 461.652344 C 395.628906 462.839844 395.582031 463.949219 395.402344 465.203125 C 394.277344 475 391.683594 484.71875 388.683594 494.40625 C 387.171875 499.25 385.492188 504.078125 383.871094 508.953125 C 383.035156 511.402344 382.210938 513.835938 381.382812 516.269531 C 380.546875 518.652344 379.710938 521.03125 378.878906 523.402344 C 378.050781 525.808594 377.222656 528.210938 376.402344 530.597656 C 375.5625 532.933594 374.71875 535.257812 373.882812 537.570312 C 372.203125 542.234375 370.535156 546.855469 368.886719 551.414062 C 367.210938 555.992188 365.601562 560.597656 363.980469 565.125 C 362.359375 569.640625 360.832031 574.179688 359.316406 578.644531 C 358.570312 580.882812 357.789062 583.078125 357.082031 585.308594 C 356.382812 587.542969 355.6875 589.757812 354.996094 591.953125 C 354.320312 594.160156 353.613281 596.328125 352.972656 598.515625 C 352.351562 600.707031 351.742188 602.882812 351.132812 605.042969 C 350.539062 607.203125 349.953125 609.339844 349.367188 611.46875 C 348.851562 613.621094 348.347656 615.757812 347.847656 617.871094 C 347.351562 619.992188 346.859375 622.085938 346.378906 624.160156 C 346.257812 624.671875 346.136719 625.195312 346.023438 625.710938 L 345.976562 625.902344 C 345.898438 626.246094 345.9375 626.109375 345.90625 626.238281 L 345.839844 626.617188 L 345.695312 627.378906 C 345.511719 628.390625 345.320312 629.394531 345.132812 630.398438 C 344.949219 631.402344 344.765625 632.398438 344.578125 633.394531 C 344.417969 634.449219 344.257812 635.492188 344.097656 636.535156 C 343.945312 637.582031 343.792969 638.617188 343.640625 639.652344 C 343.480469 640.679688 343.34375 641.707031 343.253906 642.710938 C 343.046875 644.730469 342.84375 646.730469 342.644531 648.695312 C 342.515625 650.671875 342.394531 652.625 342.273438 654.558594 C 342.121094 656.480469 342.164062 658.390625 342.113281 660.269531 C 342.105469 661.210938 342.089844 662.140625 342.074219 663.066406 C 342.074219 663.988281 342.113281 664.914062 342.128906 665.828125 C 342.195312 667.652344 342.203125 669.449219 342.308594 671.210938 C 342.4375 672.976562 342.554688 674.710938 342.683594 676.421875 C 343.863281 690.074219 346.507812 701.640625 349.078125 710.933594 C 349.726562 713.265625 350.394531 715.441406 351.011719 717.496094 C 351.636719 719.550781 352.304688 721.449219 352.882812 723.222656 C 354.03125 726.773438 355.148438 729.738281 356.023438 732.148438 C 357.847656 736.949219 358.867188 739.488281 358.867188 739.488281 C 359.027344 739.898438 359.46875 740.152344 359.925781 740.066406 C 360.441406 739.960938 360.777344 739.472656 360.679688 738.949219 C 360.679688 738.949219 360.183594 736.273438 359.234375 731.261719 C 359.019531 730.011719 358.769531 728.605469 358.503906 727.0625 C 358.214844 725.527344 357.902344 723.859375 357.621094 722.035156 C 357.339844 720.21875 356.988281 718.277344 356.699219 716.1875 C 356.425781 714.105469 356.054688 711.90625 355.757812 709.570312 C 355.195312 704.894531 354.5625 699.746094 354.222656 694.132812 C 354.136719 692.734375 354.015625 691.304688 353.941406 689.851562 C 353.894531 688.398438 353.847656 686.910156 353.796875 685.410156 C 353.734375 683.898438 353.742188 682.367188 353.742188 680.808594 C 353.757812 679.25 353.703125 677.675781 353.78125 676.070312 C 353.933594 669.644531 354.480469 662.855469 355.46875 655.773438 C 355.734375 654.003906 356.007812 652.222656 356.28125 650.40625 C 356.632812 648.609375 356.976562 646.785156 357.339844 644.945312 C 357.429688 644.488281 357.507812 644.023438 357.613281 643.5625 C 357.71875 643.113281 357.820312 642.664062 357.925781 642.207031 C 358.136719 641.300781 358.34375 640.382812 358.550781 639.46875 C 358.761719 638.550781 358.976562 637.628906 359.1875 636.695312 C 359.453125 635.726562 359.714844 634.746094 359.972656 633.757812 C 364.179688 618.480469 369.914062 602.136719 376.621094 584.898438 C 378.289062 580.585938 380 576.226562 381.777344 571.785156 C 383.527344 567.335938 385.316406 562.84375 387.09375 558.242188 C 387.984375 555.953125 388.875 553.648438 389.773438 551.328125 C 390.65625 548.964844 391.539062 546.597656 392.433594 544.210938 C 393.308594 541.824219 394.191406 539.425781 395.082031 537.015625 C 395.902344 534.621094 396.726562 532.21875 397.554688 529.820312 C 397.957031 528.605469 398.367188 527.394531 398.777344 526.1875 L 399.386719 524.363281 L 400.019531 522.429688 C 400.808594 519.980469 401.601562 517.53125 402.398438 515.0625 C 404.003906 510.101562 405.546875 505.015625 406.992188 499.796875 C 409.90625 489.378906 412.265625 478.34375 413.078125 466.800781 C 413.214844 465.402344 413.238281 463.828125 413.3125 462.335938 L 413.351562 461.210938 C 413.367188 460.816406 413.351562 460.519531 413.359375 460.175781 L 413.359375 458.160156 L 413.351562 457.15625 L 413.351562 456.464844 L 413.335938 455.957031 L 413.277344 453.902344 C 413.246094 452.535156 413.214844 451.171875 413.148438 449.789062 C 412.972656 444.289062 412.621094 438.691406 412.074219 433.066406 L 411.609375 428.835938 L 411 424.578125 C 410.828125 423.1875 410.53125 421.679688 410.257812 420.207031 C 409.988281 418.746094 409.730469 417.1875 409.398438 415.9375 L 408.414062 411.757812 L 407.214844 407.589844 L 405.921875 403.519531 C 405.488281 402.160156 405.015625 400.859375 404.558594 399.527344 C 400.871094 388.988281 396.738281 379.070312 393.933594 369.191406 C 392.519531 364.25 391.429688 359.34375 390.867188 354.492188 L 390.570312 350.871094 C 390.511719 349.707031 390.535156 348.628906 390.503906 347.503906 C 390.496094 347.222656 390.480469 346.960938 390.488281 346.652344 L 390.5625 345.648438 L 390.699219 343.648438 L 390.769531 342.644531 L 390.800781 342.253906 L 390.808594 342.1875 L 390.84375 341.964844 L 391.113281 340.171875 C 391.8125 335.378906 393.105469 330.492188 394.542969 325.386719 C 394.898438 324.09375 395.25 322.808594 395.613281 321.523438 L 396.140625 319.585938 L 396.640625 317.585938 L 397.128906 315.578125 C 397.296875 314.921875 397.460938 314.261719 397.605469 313.515625 C 397.886719 312.078125 398.175781 310.640625 398.453125 309.210938 C 398.65625 307.875 398.808594 306.601562 398.984375 305.296875 L 399.113281 304.328125 L 399.167969 303.851562 L 399.1875 303.597656 L 399.21875 303.066406 L 399.339844 300.976562 C 399.402344 299.578125 399.539062 298.191406 399.539062 296.800781 C 399.515625 295.410156 399.5 294.023438 399.484375 292.640625 C 399.492188 291.25 399.363281 289.886719 399.242188 288.519531 C 399.121094 287.148438 399.050781 285.773438 398.871094 284.425781 C 398.472656 281.75 398.15625 279.042969 397.578125 276.449219 C 397.304688 275.148438 397.082031 273.828125 396.777344 272.546875 C 396.464844 271.269531 396.148438 270 395.835938 268.730469 C 395.546875 267.453125 395.1875 266.199219 394.839844 264.953125 C 394.496094 263.710938 394.144531 262.464844 393.796875 261.226562 C 393.4375 260.03125 393.074219 258.835938 392.714844 257.636719 L 392.175781 255.855469 L 391.742188 254.3125 C 391.242188 252.359375 391.066406 250.441406 391.179688 248.53125 C 391.371094 244.722656 392.960938 240.914062 395.226562 237.125 C 397.484375 233.324219 400.308594 229.566406 403.007812 225.566406 C 404.355469 223.566406 405.667969 221.503906 406.871094 219.34375 C 407.175781 218.804688 407.472656 218.257812 407.753906 217.703125 L 408.179688 216.875 L 408.597656 215.992188 L 409.015625 215.101562 L 409.351562 214.316406 L 409.722656 213.457031 L 410.027344 212.621094 C 410.4375 211.511719 410.84375 210.410156 411.253906 209.320312 L 411.859375 207.671875 L 412.371094 205.992188 C 412.707031 204.878906 413.054688 203.769531 413.390625 202.667969 C 413.710938 201.558594 413.953125 200.417969 414.234375 199.3125 C 415.359375 194.855469 415.96875 190.339844 416.363281 185.929688 C 416.46875 183.722656 416.644531 181.527344 416.585938 179.359375 C 416.570312 178.285156 416.613281 177.199219 416.546875 176.140625 C 416.492188 175.070312 416.433594 174.011719 416.378906 172.960938 C 416.347656 171.90625 416.21875 170.871094 416.121094 169.835938 C 416.015625 168.796875 415.9375 167.769531 415.808594 166.757812 C 415.519531 164.734375 415.300781 162.71875 414.949219 160.773438 C 414.636719 158.816406 414.308594 156.886719 413.9375 155 C 413.59375 153.105469 413.214844 151.25 412.84375 149.417969 C 412.097656 145.78125 411.375 142.238281 410.667969 138.792969 C 410.332031 137.066406 409.996094 135.371094 409.664062 133.691406 C 409.503906 132.855469 409.34375 132.039062 409.183594 131.210938 C 409.03125 130.390625 408.886719 129.578125 408.734375 128.769531 C 406.363281 115.863281 405.367188 104.449219 406.46875 95.242188 C 407.007812 90.648438 408.066406 86.648438 409.519531 83.429688 C 410.933594 80.183594 412.765625 77.765625 414.46875 76.054688 C 414.917969 75.65625 415.300781 75.230469 415.71875 74.890625 C 416.136719 74.5625 416.53125 74.25 416.882812 73.960938 C 417.640625 73.429688 418.257812 73.019531 418.804688 72.683594 C 419.960938 72.0625 420.5625 71.742188 420.5625 71.742188 C 421.003906 71.5 421.1875 70.957031 420.972656 70.496094 " fill-opacity="1" fill-rule="nonzero"/></g><path fill="#00286b" d="M 325.742188 242.507812 C 325.742188 242.507812 325.828125 242.335938 326.003906 242 C 326.222656 241.65625 326.382812 241.171875 326.601562 240.5625 C 326.792969 239.921875 327.007812 239.132812 327.074219 238.160156 C 327.128906 237.195312 327.160156 236.105469 327.035156 234.859375 C 326.800781 232.371094 326.03125 229.375 324.953125 225.929688 C 324.398438 224.210938 323.742188 222.386719 322.996094 220.46875 C 322.246094 218.546875 321.484375 216.515625 320.625 214.386719 C 318.945312 210.121094 317.058594 205.472656 315.238281 200.339844 C 313.453125 195.183594 311.625 189.617188 310.691406 183.046875 C 310.242188 179.753906 310.015625 176.171875 310.714844 172.074219 C 311.070312 170.042969 311.679688 167.867188 312.753906 165.699219 C 313.839844 163.554688 315.421875 161.457031 317.324219 159.785156 C 319.226562 158.109375 321.386719 156.847656 323.492188 156.003906 C 325.597656 155.144531 327.675781 154.65625 329.675781 154.324219 L 331.152344 154.140625 C 331.652344 154.078125 332.132812 154.027344 332.605469 154.003906 L 334.035156 153.914062 L 334.125 153.90625 C 333.867188 153.90625 334.574219 153.898438 334.527344 153.898438 L 335.539062 153.898438 C 336.125 153.875 337.527344 153.972656 338.660156 154.070312 C 338.964844 154.09375 339.222656 154.125 339.472656 154.164062 L 340.234375 154.285156 C 340.742188 154.375 341.261719 154.421875 341.761719 154.558594 C 345.761719 155.449219 349.476562 156.992188 352.730469 158.953125 C 356.007812 160.886719 358.839844 163.257812 361.378906 165.730469 C 363.917969 168.210938 366.101562 170.902344 368.027344 173.675781 C 369.957031 176.4375 371.632812 179.28125 373.03125 182.210938 C 375.832031 188.050781 377.722656 194.082031 378.410156 200.234375 C 378.988281 206.308594 378.476562 211.898438 377.175781 216.972656 C 376.507812 219.496094 375.679688 221.886719 374.566406 224.058594 C 373.464844 226.21875 372.171875 228.175781 370.734375 229.839844 C 369.296875 231.496094 367.738281 232.890625 366.101562 233.871094 C 364.480469 234.867188 362.871094 235.519531 361.417969 235.945312 C 359.972656 236.394531 358.632812 236.539062 357.5 236.609375 C 356.359375 236.660156 355.414062 236.636719 354.648438 236.5625 C 353.894531 236.539062 353.316406 236.386719 352.929688 236.335938 C 352.554688 236.273438 352.351562 236.242188 352.351562 236.242188 L 352.296875 236.234375 C 352.046875 236.183594 351.886719 235.953125 351.925781 235.703125 C 351.960938 235.496094 352.144531 235.332031 352.351562 235.324219 C 352.351562 235.324219 352.546875 235.316406 352.90625 235.300781 C 353.277344 235.277344 353.824219 235.292969 354.519531 235.199219 C 355.917969 235.0625 358 234.722656 360.382812 233.640625 C 362.761719 232.570312 365.394531 230.609375 367.417969 227.558594 C 369.449219 224.523438 370.917969 220.554688 371.617188 216.066406 C 372.332031 211.582031 372.347656 206.570312 371.488281 201.433594 C 370.574219 196.316406 368.597656 191.085938 365.890625 186.066406 C 363.152344 181.0625 359.636719 176.242188 355.308594 172.132812 C 353.140625 170.09375 350.753906 168.253906 348.167969 166.742188 C 345.597656 165.214844 342.78125 164.109375 339.882812 163.480469 C 336.992188 162.839844 333.964844 162.863281 331.007812 163.265625 C 328.09375 163.707031 325.226562 164.628906 323.082031 166.492188 C 320.90625 168.308594 319.628906 170.976562 319.082031 173.761719 C 318.503906 176.566406 318.554688 179.472656 318.792969 182.300781 C 319.332031 187.96875 320.691406 193.390625 322.03125 198.492188 C 323.402344 203.601562 324.839844 208.402344 326.070312 212.867188 C 327.304688 217.335938 328.308594 221.488281 328.9375 225.222656 C 329.570312 228.964844 329.796875 232.304688 329.5625 235.0625 C 329.339844 237.816406 328.558594 239.945312 327.796875 241.246094 C 327.402344 241.894531 327.050781 242.402344 326.800781 242.660156 C 326.566406 242.949219 326.4375 243.09375 326.4375 243.09375 C 326.277344 243.285156 325.996094 243.308594 325.804688 243.148438 L 325.691406 242.585938 L 325.742188 242.507812 " fill-opacity="1" fill-rule="nonzero"/><g clip-path="url(#d35da1ca19)"><path fill="#00286b" d="M 282.191406 330.550781 C 282.191406 330.550781 281.582031 330.695312 280.410156 330.976562 C 279.222656 331.25 277.453125 331.632812 275.15625 332.09375 C 272.859375 332.527344 270.027344 333.0625 266.695312 333.707031 C 263.371094 334.339844 259.554688 335.082031 255.378906 336.195312 C 251.226562 337.335938 246.675781 338.824219 242.25 341.371094 C 237.832031 343.875 233.625 347.554688 230.574219 352.523438 C 229.039062 355 227.777344 357.753906 226.792969 360.710938 L 226.597656 361.265625 L 226.589844 361.320312 L 226.550781 361.464844 L 226.46875 361.761719 L 226.15625 362.941406 C 225.949219 363.738281 225.738281 364.53125 225.53125 365.335938 C 225.355469 366.132812 225.28125 366.886719 225.144531 367.671875 L 224.960938 368.847656 C 224.894531 369.230469 224.824219 369.625 224.824219 370.035156 C 224.777344 371.65625 224.566406 373.296875 224.757812 374.941406 C 224.839844 375.761719 224.816406 376.597656 224.960938 377.414062 C 225.113281 378.234375 225.265625 379.054688 225.410156 379.882812 L 225.523438 380.5 L 225.707031 381.109375 L 226.078125 382.324219 L 226.445312 383.542969 C 226.566406 383.953125 226.773438 384.339844 226.9375 384.734375 C 227.28125 385.519531 227.59375 386.324219 227.980469 387.101562 C 228.40625 387.855469 228.839844 388.621094 229.273438 389.382812 C 231.144531 392.363281 233.433594 395.191406 236.164062 397.71875 C 238.910156 400.21875 241.945312 402.546875 245.261719 404.601562 C 251.902344 408.699219 259.417969 411.976562 267.410156 414.546875 C 271.40625 415.847656 275.519531 416.988281 279.726562 417.953125 C 283.933594 418.949219 288.230469 419.792969 292.597656 420.449219 C 296.96875 421.125 301.410156 421.65625 305.898438 421.984375 C 308.136719 422.136719 310.386719 422.265625 312.644531 422.320312 C 313.777344 422.363281 314.898438 422.34375 316.03125 422.363281 L 316.457031 422.371094 C 316.183594 422.378906 316.503906 422.363281 316.496094 422.363281 L 316.722656 422.34375 L 317.589844 422.296875 L 319.339844 422.199219 C 337.625 421.574219 355.871094 415.984375 373.175781 407.664062 C 390.535156 399.34375 406.960938 388.273438 423.40625 377.03125 C 439.828125 365.746094 456.378906 354.1875 474.171875 344.742188 C 483.070312 340.050781 492.28125 335.898438 501.78125 332.742188 C 502.976562 332.347656 504.15625 331.957031 505.347656 331.570312 C 506.519531 331.152344 507.746094 330.886719 508.953125 330.542969 C 510.15625 330.222656 511.359375 329.898438 512.566406 329.578125 L 514.363281 329.105469 L 516.195312 328.726562 C 518.636719 328.253906 521.054688 327.722656 523.488281 327.304688 C 525.9375 326.976562 528.378906 326.648438 530.808594 326.316406 C 540.589844 325.394531 550.269531 325.507812 559.65625 326.558594 L 561.324219 326.757812 C 561.894531 326.832031 562.402344 326.878906 563.066406 327 C 564.3125 327.21875 565.628906 327.402344 566.777344 327.667969 C 567.957031 327.914062 569.140625 328.164062 570.277344 328.46875 C 571.445312 328.75 572.582031 329.066406 573.699219 329.402344 C 578.195312 330.726562 582.453125 332.367188 586.53125 334.066406 C 594.683594 337.507812 602.160156 341.25 609.394531 344.453125 C 616.589844 347.738281 623.558594 350.515625 630.386719 352.15625 C 633.789062 352.984375 637.15625 353.496094 640.441406 353.753906 L 641.667969 353.851562 L 642.898438 353.875 C 643.707031 353.898438 644.519531 353.929688 645.3125 353.890625 C 646.117188 353.851562 646.921875 353.875 647.707031 353.785156 L 648.886719 353.683594 L 649.472656 353.625 L 649.769531 353.601562 L 649.914062 353.59375 C 649.433594 353.683594 649.875 353.601562 649.804688 353.609375 C 655.96875 352.550781 661.695312 350.074219 667.027344 347.554688 C 672.335938 344.992188 677.144531 342.148438 681.472656 339.328125 C 685.792969 336.511719 689.664062 333.730469 693 331.023438 C 696.324219 328.316406 699.199219 325.761719 701.558594 323.410156 C 703.917969 321.058594 705.773438 318.914062 707.1875 317.105469 C 707.910156 316.214844 708.480469 315.378906 708.988281 314.664062 C 709.46875 313.933594 709.855469 313.304688 710.175781 312.808594 C 710.753906 311.773438 711.050781 311.242188 711.050781 311.242188 L 712.160156 311.722656 C 712.160156 311.722656 711.925781 312.316406 711.476562 313.464844 C 710.96875 314.589844 710.191406 316.261719 708.945312 318.308594 C 706.503906 322.421875 702.234375 328.035156 695.871094 334.261719 C 689.496094 340.46875 681.167969 347.417969 670.351562 353.777344 C 667.644531 355.375 664.773438 356.910156 661.671875 358.292969 C 660.113281 358.984375 658.515625 359.648438 656.828125 360.242188 L 655.5625 360.695312 C 655.101562 360.832031 654.644531 360.976562 654.1875 361.109375 C 653.207031 361.417969 652.46875 361.585938 651.617188 361.808594 C 651.449219 361.84375 651.785156 361.785156 651.199219 361.898438 L 651.023438 361.921875 L 650.6875 361.980469 L 649.996094 362.082031 C 649.539062 362.15625 649.082031 362.226562 648.613281 362.300781 C 647.691406 362.460938 646.75 362.5 645.8125 362.605469 C 644.863281 362.71875 643.917969 362.75 642.960938 362.78125 L 641.515625 362.839844 L 640.070312 362.820312 C 636.207031 362.789062 632.28125 362.332031 628.371094 361.601562 C 620.53125 360.125 612.808594 357.449219 605.171875 354.421875 C 597.542969 351.335938 589.960938 347.875 582.1875 344.910156 C 578.308594 343.433594 574.375 342.117188 570.40625 341.046875 C 569.410156 340.765625 568.417969 340.519531 567.421875 340.292969 C 566.425781 340.042969 565.429688 339.859375 564.425781 339.667969 C 563.398438 339.449219 562.496094 339.359375 561.535156 339.199219 C 561.101562 339.121094 560.488281 339.070312 559.945312 339.007812 L 558.265625 338.839844 C 549.722656 338.125 540.945312 337.941406 532.09375 338.839844 C 514.363281 340.574219 496.519531 346.414062 479.304688 354.824219 C 470.6875 359.007812 462.230469 363.875 453.847656 369.023438 C 445.464844 374.179688 437.144531 379.617188 428.769531 385.0625 C 420.402344 390.523438 411.992188 396.007812 403.363281 401.164062 C 394.730469 406.3125 385.878906 411.15625 376.757812 415.316406 C 367.632812 419.46875 358.214844 422.957031 348.609375 425.367188 C 346.195312 425.902344 343.808594 426.53125 341.390625 426.996094 C 338.957031 427.398438 336.542969 427.800781 334.125 428.207031 C 331.675781 428.496094 329.203125 428.714844 326.753906 428.964844 C 326.140625 429.011719 325.523438 429.101562 324.929688 429.125 L 323.164062 429.179688 C 321.992188 429.21875 320.816406 429.253906 319.652344 429.292969 L 317.027344 429.375 L 316.417969 429.382812 L 315.96875 429.375 C 314.769531 429.324219 313.566406 429.308594 312.386719 429.238281 C 310 429.117188 307.648438 428.929688 305.3125 428.714844 C 300.644531 428.25 296.050781 427.574219 291.539062 426.769531 C 287.027344 425.976562 282.601562 424.988281 278.265625 423.855469 C 273.929688 422.738281 269.695312 421.414062 265.570312 419.945312 C 257.332031 417.019531 249.53125 413.375 242.5625 408.789062 C 239.085938 406.492188 235.875 403.878906 232.949219 401.0625 C 230.042969 398.203125 227.570312 394.980469 225.5625 391.566406 C 225.097656 390.691406 224.640625 389.816406 224.179688 388.949219 C 223.773438 388.058594 223.441406 387.125 223.074219 386.226562 C 222.90625 385.769531 222.6875 385.335938 222.566406 384.871094 L 222.183594 383.464844 L 221.8125 382.074219 L 221.621094 381.382812 L 221.507812 380.683594 C 221.371094 379.746094 221.226562 378.804688 221.089844 377.882812 C 220.953125 376.949219 220.992188 376.011719 220.9375 375.09375 C 220.785156 373.238281 221.058594 371.441406 221.171875 369.648438 C 221.1875 369.207031 221.273438 368.757812 221.355469 368.316406 C 221.441406 367.875 221.523438 367.433594 221.605469 366.992188 C 221.78125 366.121094 221.917969 365.214844 222.125 364.394531 C 222.359375 363.601562 222.597656 362.804688 222.824219 362.019531 L 223.167969 360.847656 L 223.371094 360.171875 L 223.59375 359.585938 C 224.75 356.445312 226.195312 353.488281 227.957031 350.847656 C 231.441406 345.503906 236.195312 341.601562 240.980469 339.070312 C 245.789062 336.511719 250.578125 335.144531 254.855469 334.125 C 259.167969 333.128906 263.039062 332.519531 266.390625 331.988281 C 269.738281 331.464844 272.589844 331.023438 274.902344 330.664062 C 277.207031 330.285156 278.957031 329.964844 280.136719 329.730469 C 281.316406 329.488281 281.925781 329.371094 281.925781 329.371094 L 282.191406 330.550781 " fill-opacity="1" fill-rule="nonzero"/></g><path fill="#00286b" d="M 394.207031 267.855469 C 394.207031 267.855469 394.519531 267.886719 395.113281 267.96875 C 395.707031 268.039062 396.769531 268.191406 397.980469 268.390625 C 400.460938 268.828125 404.109375 269.53125 408.621094 271.011719 C 413.109375 272.503906 418.546875 274.6875 424.167969 278.699219 C 426.960938 280.714844 429.8125 283.203125 432.300781 286.496094 C 434.769531 289.757812 436.878906 293.957031 437.488281 298.761719 C 437.8125 301.144531 437.738281 303.636719 437.3125 306.046875 C 436.878906 308.445312 436.109375 310.785156 435.082031 312.953125 C 434.824219 313.5 434.542969 314.027344 434.269531 314.558594 C 433.996094 315.03125 433.722656 315.507812 433.449219 315.980469 C 433.21875 316.390625 432.847656 316.960938 432.542969 317.449219 C 432.214844 317.964844 431.894531 318.460938 431.554688 318.921875 C 430.246094 320.816406 428.792969 322.65625 427.179688 324.382812 C 423.976562 327.835938 420.242188 330.929688 416.144531 333.507812 C 412.058594 336.101562 407.632812 338.238281 403.03125 339.964844 C 393.804688 343.394531 383.910156 345.230469 373.90625 346.011719 C 363.882812 346.765625 353.710938 346.46875 343.65625 345.296875 C 333.609375 344.101562 323.675781 342.117188 314.160156 338.902344 C 304.667969 335.640625 295.949219 331.144531 287.902344 326.269531 C 271.824219 316.453125 258.4375 304.929688 248.359375 293.851562 C 243.316406 288.304688 239.117188 282.851562 235.785156 277.757812 C 232.445312 272.671875 229.980469 267.957031 228.261719 263.960938 C 226.527344 259.949219 225.523438 256.675781 224.929688 254.425781 C 224.648438 253.292969 224.4375 252.425781 224.316406 251.832031 C 224.199219 251.246094 224.132812 250.949219 224.132812 250.949219 C 224.132812 250.949219 224.207031 251.246094 224.359375 251.824219 C 224.496094 252.410156 224.742188 253.269531 225.066406 254.386719 C 225.746094 256.601562 226.878906 259.832031 228.757812 263.726562 C 230.628906 267.628906 233.253906 272.199219 236.757812 277.089844 C 240.25 281.992188 244.617188 287.203125 249.804688 292.480469 C 260.1875 303 273.847656 313.820312 289.933594 322.777344 C 297.972656 327.21875 306.628906 331.226562 315.75 333.957031 C 324.875 336.628906 334.582031 338.179688 344.273438 338.933594 C 353.984375 339.667969 363.746094 339.554688 373.175781 338.460938 C 382.59375 337.351562 391.710938 335.234375 399.820312 331.835938 C 407.90625 328.445312 414.925781 323.683594 419.855469 317.851562 C 421.09375 316.40625 422.199219 314.886719 423.179688 313.332031 C 423.4375 312.9375 423.671875 312.566406 423.871094 312.199219 C 424.085938 311.8125 424.289062 311.523438 424.539062 311.03125 C 424.753906 310.617188 424.972656 310.199219 425.1875 309.789062 C 425.363281 309.417969 425.550781 309.050781 425.710938 308.679688 C 427.003906 305.714844 427.394531 302.847656 426.960938 300.253906 C 426.136719 295.042969 422.015625 290.761719 417.734375 287.902344 C 413.40625 284.984375 408.886719 283.277344 405.128906 282.152344 C 401.347656 281.035156 398.246094 280.527344 396.140625 280.222656 C 395.050781 280.078125 394.351562 280 393.75 279.941406 C 393.15625 279.878906 392.839844 279.847656 392.839844 279.847656 L 394.207031 267.855469 " fill-opacity="1" fill-rule="nonzero"/><g clip-path="url(#4256321665)"><path fill="#00286b" d="M 248.34375 614.914062 C 174.449219 610.359375 164.871094 529.015625 164.871094 529.015625 C 226.246094 507.5 269.183594 556.539062 278.59375 568.597656 L 280.015625 566.417969 C 273.90625 557.867188 219.46875 485.652344 140.738281 513.257812 C 140.738281 513.257812 154.6875 614.359375 246.921875 617.089844 L 248.34375 614.914062 " fill-opacity="1" fill-rule="nonzero"/></g><path fill="#00286b" d="M 257.332031 540.300781 C 210.777344 514.195312 230.027344 458.390625 230.027344 458.390625 C 276.621094 463.644531 289.136719 508.929688 291.46875 519.707031 L 293.074219 518.734375 C 291.789062 511.273438 279.058594 447.339844 219.300781 440.59375 C 219.300781 440.59375 196.695312 510.605469 255.722656 541.273438 L 257.332031 540.300781 " fill-opacity="1" fill-rule="nonzero"/><path fill="#00286b" d="M 434.003906 615.6875 C 507.898438 611.140625 517.488281 529.792969 517.488281 529.792969 C 456.105469 508.277344 413.175781 557.3125 403.761719 569.375 L 402.332031 567.199219 C 408.445312 558.644531 462.882812 486.421875 541.617188 514.027344 C 541.617188 514.027344 527.671875 615.140625 435.433594 617.871094 L 434.003906 615.6875 " fill-opacity="1" fill-rule="nonzero"/><path fill="#00286b" d="M 433.066406 541.070312 C 479.617188 514.976562 460.367188 459.164062 460.367188 459.164062 C 413.785156 464.414062 401.265625 509.707031 398.929688 520.484375 L 397.324219 519.511719 C 398.609375 512.042969 411.335938 448.109375 471.097656 441.371094 C 471.097656 441.371094 493.703125 511.378906 434.679688 542.042969 L 433.066406 541.070312 " fill-opacity="1" fill-rule="nonzero"/></svg>