<svg xmlns="http://www.w3.org/2000/svg" xmlns:xlink="http://www.w3.org/1999/xlink" width="1080" zoomAndPan="magnify" viewBox="0 0 810 809.999993" height="1080" preserveAspectRatio="xMidYMid meet" version="1.0"><defs><clipPath id="5e12abe3a8"><path d="M 33 10.582031 L 810 10.582031 L 810 752 L 33 752 Z M 33 10.582031 " clip-rule="nonzero"/></clipPath><clipPath id="0b7dad4da1"><path d="M 349.886719 213.90625 L 510 213.90625 L 510 380.28125 L 349.886719 380.28125 Z M 349.886719 213.90625 " clip-rule="nonzero"/></clipPath><clipPath id="a2443b2ecb"><path d="M 284 553 L 556 553 L 556 617.328125 L 284 617.328125 Z M 284 553 " clip-rule="nonzero"/></clipPath><clipPath id="51edb117ec"><path d="M 522 431 L 659 431 L 659 463.191406 L 522 463.191406 Z M 522 431 " clip-rule="nonzero"/></clipPath><clipPath id="d542717896"><path d="M 512.125 357 L 671 357 L 671 435 L 512.125 435 Z M 512.125 357 " clip-rule="nonzero"/></clipPath><clipPath id="b7636d1cca"><path d="M 189 406 L 337 406 L 337 441.550781 L 189 441.550781 Z M 189 406 " clip-rule="nonzero"/></clipPath><clipPath id="e59fb67ac0"><path d="M 178.027344 327 L 349 327 L 349 411 L 178.027344 411 Z M 178.027344 327 " clip-rule="nonzero"/></clipPath></defs><rect x="-81" width="972" fill="#ffffff" y="-80.999999" height="971.999992" fill-opacity="1"/><rect x="-81" width="972" fill="#ffffff" y="-80.999999" height="971.999992" fill-opacity="1"/><path fill="#00286b" d="M 495.222656 602.339844 C 494.902344 600.890625 492.957031 600.601562 492.242188 601.914062 C 480.347656 623.863281 452.8125 630.097656 423.976562 644.214844 C 393.414062 659.175781 361.378906 683 344.917969 743.753906 C 344.84375 744.023438 344.78125 744.285156 344.726562 744.550781 C 344.175781 747.097656 346.769531 749.175781 349.121094 748.058594 C 351.632812 746.859375 354.132812 745.621094 356.621094 744.359375 C 362.855469 741.171875 369.011719 737.78125 375.085938 734.242188 C 378.125 732.464844 381.144531 730.652344 384.144531 728.808594 C 387.144531 726.960938 390.121094 725.074219 393.078125 723.15625 C 398.992188 719.3125 404.8125 715.324219 410.535156 711.1875 C 416.253906 707.050781 421.859375 702.75 427.316406 698.257812 C 432.769531 693.769531 438.074219 689.089844 443.097656 684.117188 C 445.613281 681.625 448.054688 679.0625 450.386719 676.398438 C 451.679688 674.90625 452.941406 673.390625 454.164062 671.835938 C 454.300781 671.65625 454.578125 671.851562 454.449219 672.046875 C 453.351562 673.703125 452.203125 675.316406 451.019531 676.90625 C 448.886719 679.765625 446.628906 682.535156 444.296875 685.230469 C 439.617188 690.621094 434.640625 695.753906 429.488281 700.699219 C 424.332031 705.648438 419.011719 710.421875 413.554688 715.039062 C 408.101562 719.660156 402.527344 724.148438 396.839844 728.488281 C 394 730.664062 391.132812 732.808594 388.238281 734.914062 C 385.339844 737.019531 382.414062 739.09375 379.464844 741.132812 C 373.566406 745.207031 367.554688 749.144531 361.40625 752.90625 C 359.253906 754.21875 357.089844 755.511719 354.902344 756.773438 C 352.496094 758.167969 352.941406 761.804688 355.621094 762.542969 C 355.644531 762.542969 355.667969 762.546875 355.691406 762.558594 C 437.199219 784.546875 517.796875 704.007812 495.222656 602.339844 Z M 53.144531 461.945312 C 53.738281 459.253906 57.355469 458.730469 58.664062 461.148438 C 80.710938 501.8125 131.71875 513.355469 185.148438 539.515625 C 241.765625 567.242188 301.109375 611.371094 331.613281 723.933594 C 331.742188 724.417969 331.859375 724.910156 331.96875 725.394531 C 332.988281 730.121094 328.179688 733.972656 323.824219 731.898438 C 319.167969 729.6875 314.535156 727.390625 309.925781 725.042969 C 298.378906 719.152344 286.976562 712.863281 275.714844 706.292969 C 270.085938 703.015625 264.492188 699.660156 258.933594 696.242188 C 253.378906 692.816406 247.863281 689.320312 242.390625 685.761719 C 231.429688 678.652344 220.644531 671.253906 210.046875 663.59375 C 199.445312 655.921875 189.066406 647.949219 178.953125 639.644531 C 168.851562 631.328125 159.023438 622.652344 149.707031 613.433594 C 145.050781 608.828125 140.53125 604.078125 136.21875 599.136719 C 133.816406 596.382812 131.476562 593.574219 129.226562 590.691406 C 128.960938 590.355469 128.445312 590.722656 128.683594 591.085938 C 130.714844 594.136719 132.847656 597.136719 135.042969 600.085938 C 138.992188 605.382812 143.171875 610.507812 147.5 615.507812 C 156.160156 625.496094 165.394531 635 174.933594 644.167969 C 184.488281 653.328125 194.34375 662.175781 204.449219 670.726562 C 214.554688 679.289062 224.878906 687.597656 235.414062 695.652344 C 240.679688 699.675781 245.992188 703.640625 251.355469 707.550781 C 256.722656 711.445312 262.140625 715.289062 267.605469 719.066406 C 278.539062 726.613281 289.671875 733.914062 301.0625 740.878906 C 305.046875 743.3125 309.058594 745.703125 313.109375 748.046875 C 317.5625 750.628906 316.742188 757.363281 311.777344 758.722656 C 311.738281 758.738281 311.695312 758.746094 311.65625 758.757812 C 160.640625 799.507812 11.320312 650.285156 53.144531 461.945312 " fill-opacity="1" fill-rule="nonzero"/><g clip-path="url(#5e12abe3a8)"><path fill="#00286b" d="M 819.386719 383.835938 L 701.003906 265.382812 C 695.902344 260.277344 693.035156 253.34375 693.035156 246.128906 L 693.035156 84.507812 C 693.035156 77.921875 687.699219 72.578125 681.113281 72.578125 L 616.9375 72.578125 C 610.351562 72.578125 605.015625 77.921875 605.015625 84.507812 L 605.015625 159.328125 C 605.015625 163.023438 600.554688 164.867188 597.949219 162.261719 L 456.8125 21.035156 C 450.152344 14.367188 441.292969 10.691406 431.871094 10.691406 C 422.441406 10.691406 413.585938 14.367188 406.925781 21.035156 L 44.347656 383.835938 C 34.9375 393.257812 31.164062 407.15625 35.191406 419.847656 C 39.914062 434.71875 53.496094 444.539062 68.847656 444.539062 L 139.316406 444.539062 C 139.324219 444.539062 139.328125 444.550781 139.328125 444.550781 L 139.328125 483.933594 C 139.328125 486.398438 140.789062 488.636719 143.050781 489.628906 C 147.140625 491.40625 151.355469 493.207031 155.691406 495.050781 C 162.738281 498.066406 169.925781 501.128906 177.257812 504.40625 C 180.03125 505.652344 183.167969 503.628906 183.167969 500.582031 L 183.167969 435.988281 C 183.167969 416.476562 167.367188 400.675781 147.875 400.675781 L 89.542969 400.675781 C 89.539062 400.65625 89.539062 400.65625 89.535156 400.648438 L 431.859375 58.109375 C 431.867188 58.109375 431.871094 58.109375 431.875 58.109375 L 605.015625 231.363281 L 605.015625 231.953125 L 607.523438 233.871094 L 774.195312 400.648438 C 774.203125 400.65625 774.203125 400.675781 774.1875 400.675781 L 715.855469 400.675781 C 696.367188 400.675781 680.566406 416.476562 680.566406 435.988281 L 680.566406 707.964844 C 680.566406 707.964844 680.566406 707.976562 680.558594 707.976562 L 513.273438 707.976562 C 507.007812 707.976562 501.226562 711.300781 498.058594 716.699219 C 490.960938 728.777344 482.222656 739.894531 471.929688 749.761719 C 471.136719 750.515625 471.667969 751.839844 472.757812 751.839844 L 689.113281 751.839844 C 708.609375 751.839844 724.40625 736.027344 724.40625 716.53125 L 724.40625 444.550781 C 724.40625 444.550781 724.410156 444.539062 724.421875 444.539062 L 794.894531 444.539062 C 810.238281 444.539062 823.820312 434.71875 828.546875 419.847656 C 832.574219 407.15625 828.800781 393.257812 819.386719 383.835938 Z M 439.523438 352.628906 L 492.792969 352.628906 L 492.792969 299.332031 L 439.523438 299.332031 Z M 370.945312 352.628906 L 424.210938 352.628906 L 424.210938 299.332031 L 370.945312 299.332031 Z M 492.792969 231.953125 L 439.523438 231.953125 L 439.523438 285.25 L 492.792969 285.25 Z M 370.945312 231.953125 L 424.210938 231.953125 L 424.210938 285.25 L 370.945312 285.25 L 370.945312 231.953125 " fill-opacity="1" fill-rule="nonzero"/></g><g clip-path="url(#0b7dad4da1)"><path fill="#ffffff" d="M 349.886719 213.90625 L 509.589844 213.90625 L 509.589844 384.253906 L 349.886719 384.253906 Z M 349.886719 213.90625 " fill-opacity="1" fill-rule="nonzero"/></g><path fill="#00286b" d="M 421.402344 388.070312 C 442.496094 388.070312 459.449219 371.097656 459.449219 349.976562 C 459.449219 328.519531 442.496094 311.546875 421.402344 311.546875 C 400.28125 311.546875 383.050781 328.519531 383.050781 349.667969 C 383.050781 370.816406 400.28125 388.070312 421.402344 388.070312 " fill-opacity="1" fill-rule="nonzero"/><g clip-path="url(#a2443b2ecb)"><path fill="#00286b" d="M 421.402344 617.328125 C 419.921875 617.328125 418.71875 617.019531 417.234375 616.738281 L 297.980469 588.140625 C 288.46875 585.761719 282.539062 576.238281 284.917969 566.714844 C 287.296875 557.191406 296.804688 551.226562 306.316406 553.605469 L 421.402344 581 L 533.214844 553.605469 C 542.699219 551.226562 552.238281 557.191406 554.617188 566.40625 C 556.996094 575.929688 551.035156 585.480469 541.523438 587.859375 L 425.542969 616.429688 C 424.0625 617.019531 422.578125 617.328125 421.402344 617.328125 " fill-opacity="1" fill-rule="nonzero"/></g><path fill="#00286b" d="M 563.539062 506.269531 L 509.996094 500.023438 L 490.078125 419.636719 C 488.011719 411.597656 481.15625 406.246094 472.820312 406.246094 L 370.265625 406.246094 C 362.238281 406.246094 355.078125 411.878906 353.007812 419.636719 L 333.089844 500.023438 L 279.546875 506.269531 C 270.035156 507.164062 263.210938 516.101562 264.105469 525.625 C 265 534.558594 272.71875 541.394531 281.644531 541.394531 C 282.230469 541.394531 283.125 541.394531 283.714844 541.394531 L 349.425781 533.972656 C 356.867188 533.074219 362.824219 527.695312 364.585938 520.554688 L 378.574219 464.003906 L 378.574219 546.15625 C 378.574219 548.84375 380.363281 551.226562 383.050781 551.8125 L 419.921875 560.46875 C 420.816406 560.746094 421.683594 560.746094 422.578125 560.46875 L 459.449219 551.8125 C 462.132812 551.226562 463.925781 548.84375 463.925781 546.15625 L 463.925781 461.621094 L 478.5 520.554688 C 480.289062 527.695312 486.21875 533.074219 493.660156 533.972656 L 559.371094 541.394531 C 559.960938 541.394531 560.855469 541.394531 561.441406 541.394531 C 570.367188 541.394531 577.808594 534.867188 578.980469 525.625 C 580.183594 516.101562 573.050781 507.164062 563.539062 506.269531 " fill-opacity="1" fill-rule="nonzero"/><path fill="#00286b" d="M 591.359375 348.5625 C 601.929688 348.5625 610.425781 340.074219 610.425781 329.515625 C 610.425781 318.789062 601.929688 310.300781 591.359375 310.300781 C 580.773438 310.300781 572.136719 318.789062 572.136719 329.363281 C 572.136719 339.9375 580.773438 348.5625 591.359375 348.5625 " fill-opacity="1" fill-rule="nonzero"/><g clip-path="url(#51edb117ec)"><path fill="#00286b" d="M 591.359375 463.191406 C 590.617188 463.191406 590.015625 463.039062 589.269531 462.898438 L 529.503906 448.597656 C 524.734375 447.40625 521.765625 442.648438 522.957031 437.886719 C 524.148438 433.125 528.914062 430.140625 533.679688 431.332031 L 591.359375 445.027344 L 647.398438 431.332031 C 652.152344 430.140625 656.933594 433.125 658.125 437.730469 C 659.316406 442.492188 656.328125 447.269531 651.5625 448.457031 L 593.433594 462.742188 C 592.691406 463.039062 591.949219 463.191406 591.359375 463.191406 " fill-opacity="1" fill-rule="nonzero"/></g><g clip-path="url(#d542717896)"><path fill="#00286b" d="M 662.597656 407.664062 L 635.761719 404.539062 L 625.78125 364.347656 C 624.742188 360.328125 621.308594 357.652344 617.128906 357.652344 L 565.730469 357.652344 C 561.707031 357.652344 558.117188 360.464844 557.082031 364.347656 L 547.097656 404.539062 L 520.261719 407.664062 C 515.496094 408.109375 512.074219 412.578125 512.523438 417.339844 C 512.972656 421.808594 516.84375 425.226562 521.316406 425.226562 C 521.609375 425.226562 522.058594 425.226562 522.351562 425.226562 L 555.285156 421.511719 C 559.015625 421.066406 562 418.375 562.886719 414.804688 L 569.894531 386.53125 L 569.894531 427.605469 C 569.894531 428.949219 570.792969 430.140625 572.136719 430.433594 L 590.617188 434.761719 C 591.066406 434.902344 591.5 434.902344 591.949219 434.761719 L 610.425781 430.433594 C 611.773438 430.140625 612.671875 428.949219 612.671875 427.605469 L 612.671875 385.339844 L 619.976562 414.804688 C 620.871094 418.375 623.84375 421.066406 627.574219 421.511719 L 660.507812 425.226562 C 660.800781 425.226562 661.25 425.226562 661.546875 425.226562 C 666.015625 425.226562 669.746094 421.960938 670.335938 417.339844 C 670.9375 412.578125 667.363281 408.109375 662.597656 407.664062 " fill-opacity="1" fill-rule="nonzero"/></g><path fill="#00286b" d="M 263.617188 317.507812 C 275.035156 317.507812 284.210938 308.324219 284.210938 296.898438 C 284.210938 285.289062 275.035156 276.105469 263.617188 276.105469 C 252.183594 276.105469 242.851562 285.289062 242.851562 296.730469 C 242.851562 308.171875 252.183594 317.507812 263.617188 317.507812 " fill-opacity="1" fill-rule="nonzero"/><g clip-path="url(#b7636d1cca)"><path fill="#00286b" d="M 263.617188 441.550781 C 262.8125 441.550781 262.164062 441.382812 261.359375 441.234375 L 196.796875 425.757812 C 191.648438 424.472656 188.4375 419.320312 189.726562 414.167969 C 191.011719 409.011719 196.164062 405.785156 201.3125 407.074219 L 263.617188 421.894531 L 324.148438 407.074219 C 329.28125 405.785156 334.445312 409.011719 335.734375 414 C 337.019531 419.152344 333.796875 424.320312 328.644531 425.609375 L 265.855469 441.066406 C 265.054688 441.382812 264.253906 441.550781 263.617188 441.550781 " fill-opacity="1" fill-rule="nonzero"/></g><g clip-path="url(#e59fb67ac0)"><path fill="#00286b" d="M 340.566406 381.460938 L 311.578125 378.082031 L 300.796875 334.589844 C 299.675781 330.238281 295.964844 327.34375 291.453125 327.34375 L 235.933594 327.34375 C 231.585938 327.34375 227.707031 330.390625 226.585938 334.589844 L 215.804688 378.082031 L 186.820312 381.460938 C 181.667969 381.945312 177.972656 386.78125 178.457031 391.933594 C 178.945312 396.769531 183.125 400.464844 187.953125 400.464844 C 188.273438 400.464844 188.757812 400.464844 189.074219 400.464844 L 224.648438 396.449219 C 228.679688 395.964844 231.902344 393.054688 232.859375 389.191406 L 240.429688 358.59375 L 240.429688 403.042969 C 240.429688 404.496094 241.398438 405.785156 242.851562 406.105469 L 262.8125 410.785156 C 263.296875 410.9375 263.765625 410.9375 264.253906 410.785156 L 284.210938 406.105469 C 285.667969 405.785156 286.636719 404.496094 286.636719 403.042969 L 286.636719 357.304688 L 294.527344 389.191406 C 295.496094 393.054688 298.707031 395.964844 302.734375 396.449219 L 338.308594 400.464844 C 338.625 400.464844 339.109375 400.464844 339.429688 400.464844 C 344.261719 400.464844 348.289062 396.933594 348.925781 391.933594 C 349.574219 386.78125 345.714844 381.945312 340.566406 381.460938 " fill-opacity="1" fill-rule="nonzero"/></g></svg>