<svg xmlns="http://www.w3.org/2000/svg" xmlns:xlink="http://www.w3.org/1999/xlink" width="1080" zoomAndPan="magnify" viewBox="0 0 810 809.999993" height="1080" preserveAspectRatio="xMidYMid meet" version="1.0"><defs><clipPath id="c87f9ed8fa"><path d="M 26.445312 44.445312 L 810 44.445312 L 810 619.695312 L 26.445312 619.695312 Z M 26.445312 44.445312 " clip-rule="nonzero"/></clipPath></defs><rect x="-81" width="972" fill="#ffffff" y="-80.999999" height="971.999992" fill-opacity="1"/><rect x="-81" width="972" fill="#ffffff" y="-80.999999" height="971.999992" fill-opacity="1"/><g clip-path="url(#c87f9ed8fa)"><path fill="#00286b" d="M 810.195312 442.296875 L 804.503906 320.273438 C 804.214844 315.304688 803.367188 309.003906 799.441406 305.917969 C 795.316406 302.679688 787.058594 301.152344 781.90625 299.726562 C 769.082031 296.183594 760.28125 292.972656 747.363281 289.316406 L 727.515625 309.109375 L 707.679688 289.316406 C 697.382812 292.230469 689.707031 294.859375 680.535156 297.597656 C 685.191406 303.542969 686.582031 310.949219 687.355469 318.664062 L 696.050781 404.894531 L 693.171875 442.296875 Z M 727.515625 192.476562 C 709.097656 192.476562 694.164062 206.890625 694.164062 224.683594 C 694.164062 241.886719 706.554688 279.023438 727.515625 279.023438 C 748.472656 279.023438 760.871094 241.886719 760.871094 224.683594 C 760.871094 206.890625 745.933594 192.476562 727.515625 192.476562 Z M 675.917969 510.402344 L 679.960938 412.308594 L 671.402344 327.394531 C 670.902344 322.441406 670.265625 316.136719 666.339844 313.046875 C 662.214844 309.808594 653.957031 308.28125 648.804688 306.851562 C 635.984375 303.3125 627.183594 300.097656 614.261719 296.441406 L 594.417969 316.234375 L 586.003906 307.839844 C 588.738281 315.582031 591.355469 323.359375 593.902344 331.125 C 597.335938 341.597656 598.445312 352.652344 596.488281 363.539062 C 589.085938 404.582031 577.992188 446.488281 567.605469 486.949219 C 564.933594 497.351562 559.179688 505.226562 551.945312 510.394531 L 675.917969 510.394531 Z M 594.417969 199.597656 C 576 199.597656 561.070312 214.015625 561.070312 231.808594 C 561.070312 249.011719 573.457031 286.148438 594.417969 286.148438 C 615.375 286.148438 627.773438 249.011719 627.773438 231.808594 C 627.769531 214.015625 612.832031 199.597656 594.417969 199.597656 Z M 26.445312 452.984375 L 32.136719 323.832031 C 32.632812 318.882812 33.269531 312.574219 37.199219 309.484375 C 41.324219 306.246094 49.578125 304.714844 54.734375 303.285156 C 67.554688 299.746094 76.355469 296.53125 89.277344 292.878906 L 109.125 312.671875 L 128.964844 292.878906 C 139.257812 295.789062 146.933594 298.417969 156.109375 301.15625 C 151.453125 307.101562 150.0625 314.507812 149.285156 322.226562 L 140.59375 408.460938 L 143.472656 452.984375 Z M 109.125 196.039062 C 127.542969 196.039062 142.472656 210.457031 142.472656 228.246094 C 142.472656 245.453125 130.082031 282.589844 109.125 282.589844 C 88.164062 282.589844 75.769531 245.453125 75.769531 228.246094 C 75.769531 210.457031 90.707031 196.039062 109.125 196.039062 Z M 160.722656 485.464844 L 156.679688 412.3125 L 165.234375 327.398438 C 165.734375 322.445312 166.371094 316.140625 170.296875 313.050781 C 174.421875 309.8125 182.679688 308.285156 187.832031 306.855469 C 200.652344 303.316406 209.453125 300.101562 222.375 296.445312 L 242.21875 316.238281 L 250.636719 307.84375 C 247.902344 315.585938 245.285156 323.359375 242.738281 331.128906 C 239.300781 341.597656 238.191406 352.652344 240.15625 363.542969 C 247.464844 404.082031 258.378906 445.464844 268.65625 485.460938 L 160.722656 485.460938 Z M 242.21875 199.597656 C 260.636719 199.597656 275.570312 214.015625 275.570312 231.808594 C 275.570312 249.011719 263.179688 286.148438 242.21875 286.148438 C 221.261719 286.148438 208.867188 249.011719 208.867188 231.808594 C 208.867188 214.015625 223.808594 199.597656 242.21875 199.597656 Z M 418.320312 172.714844 C 387.257812 172.714844 368.894531 117.675781 368.894531 92.183594 C 368.894531 65.8125 391.023438 44.445312 418.320312 44.445312 C 445.617188 44.449219 467.746094 65.8125 467.746094 92.1875 C 467.746094 117.675781 449.382812 172.714844 418.320312 172.714844 M 511.507812 463.289062 C 511.164062 406.371094 507.734375 352.300781 506.695312 294.613281 C 518.007812 312.867188 523.652344 331.023438 529.714844 351.5625 C 525.5625 382.453125 520.433594 424.816406 511.507812 463.289062 Z M 495.910156 203.265625 C 477.625 198.210938 467.730469 193.625 449.285156 188.410156 C 443.972656 209.621094 437.40625 252.300781 427.570312 271.914062 L 426.148438 219.4375 L 418.320312 214.257812 L 410.492188 219.4375 L 409.066406 271.914062 C 399.238281 252.296875 392.667969 209.621094 387.355469 188.410156 L 319.839844 209.0625 C 315.839844 210.167969 317.335938 213.527344 314.703125 217.179688 C 288.871094 253.074219 273.082031 295.765625 259.664062 336.683594 C 258.011719 341.726562 255.882812 350.390625 257.6875 360.386719 C 263.988281 395.335938 279.238281 455.066406 286.289062 482.523438 C 292.027344 504.863281 316.882812 503.878906 325.203125 489.300781 C 325.25 492.863281 325.308594 507.066406 325.378906 510.660156 L 335.644531 510.660156 C 340.914062 614.332031 351.9375 720.285156 354.351562 820.613281 C 354.449219 824.800781 357.917969 828.199219 362.125 828.199219 L 395.980469 828.199219 C 400.171875 828.199219 403.644531 824.820312 403.75 820.632812 L 411.5625 522.691406 C 411.808594 513.191406 424.832031 513.191406 425.078125 522.691406 L 432.894531 820.632812 C 432.996094 824.820312 436.46875 828.199219 440.660156 828.199219 L 474.519531 828.199219 C 478.726562 828.199219 482.191406 824.804688 482.292969 820.613281 C 484.703125 720.285156 495.730469 614.332031 500.996094 510.660156 L 511.261719 510.660156 C 511.335938 507.066406 511.394531 492.863281 511.441406 489.300781 C 519.761719 503.878906 544.617188 504.863281 550.351562 482.523438 C 557.410156 455.066406 572.660156 395.335938 578.960938 360.386719 C 580.761719 350.386719 578.636719 341.726562 576.980469 336.683594 C 563.5625 295.769531 547.777344 253.074219 521.941406 217.179688 C 515.421875 208.128906 529.433594 212.566406 495.910156 203.265625 Z M 325.128906 463.289062 C 325.476562 406.371094 328.902344 352.300781 329.941406 294.613281 C 318.628906 312.867188 313.402344 330.492188 306.925781 351.5625 C 311.078125 382.453125 316.203125 424.816406 325.128906 463.289062 Z M 325.128906 463.289062 " fill-opacity="1" fill-rule="evenodd"/></g></svg>