<svg xmlns="http://www.w3.org/2000/svg" xmlns:xlink="http://www.w3.org/1999/xlink" width="1080" zoomAndPan="magnify" viewBox="0 0 810 809.999993" height="1080" preserveAspectRatio="xMidYMid meet" version="1.0"><defs><clipPath id="cbb967c595"><path d="M 37 406 L 446 406 L 446 766.246094 L 37 766.246094 Z M 37 406 " clip-rule="nonzero"/></clipPath><clipPath id="baafe284fa"><path d="M 502 630 L 617 630 L 617 766.246094 L 502 766.246094 Z M 502 630 " clip-rule="nonzero"/></clipPath><clipPath id="09e7d60e48"><path d="M 91 679 L 392 679 L 392 766.246094 L 91 766.246094 Z M 91 679 " clip-rule="nonzero"/></clipPath><clipPath id="d178066632"><path d="M 194 118.246094 L 289 118.246094 L 289 227 L 194 227 Z M 194 118.246094 " clip-rule="nonzero"/></clipPath><clipPath id="ce73916712"><path d="M 429 279 L 690 279 L 690 766.246094 L 429 766.246094 Z M 429 279 " clip-rule="nonzero"/></clipPath></defs><rect x="-81" width="972" fill="#ffffff" y="-80.999999" height="971.999992" fill-opacity="1"/><rect x="-81" width="972" fill="#ffffff" y="-80.999999" height="971.999992" fill-opacity="1"/><rect x="-81" width="972" fill="#ffffff" y="-80.999999" height="971.999992" fill-opacity="1"/><path fill="#00286b" d="M 719.710938 295.574219 L 399.332031 295.574219 C 396.039062 295.574219 393.0625 293.535156 391.964844 290.398438 C 390.867188 287.261719 391.804688 283.8125 394.316406 281.777344 L 554.582031 148.507812 C 557.5625 146.15625 561.636719 146.15625 564.617188 148.507812 L 724.726562 281.617188 C 727.238281 283.8125 728.175781 287.261719 727.078125 290.242188 C 725.980469 293.222656 723.003906 295.574219 719.710938 295.574219 Z M 421.132812 279.894531 L 698.070312 279.894531 L 559.601562 164.8125 Z M 421.132812 279.894531 " fill-opacity="1" fill-rule="nonzero"/><g clip-path="url(#cbb967c595)"><path fill="#00286b" d="M 437.597656 766.246094 L 45.242188 766.246094 C 40.851562 766.246094 37.402344 762.796875 37.402344 758.40625 L 37.402344 414.105469 C 37.402344 409.714844 40.851562 406.265625 45.242188 406.265625 L 437.441406 406.265625 C 441.832031 406.265625 445.28125 409.714844 445.28125 414.105469 L 445.28125 758.40625 C 445.4375 762.640625 441.832031 766.246094 437.597656 766.246094 Z M 53.082031 750.570312 L 429.597656 750.570312 L 429.597656 421.941406 L 53.082031 421.941406 Z M 53.082031 750.570312 " fill-opacity="1" fill-rule="nonzero"/></g><g clip-path="url(#baafe284fa)"><path fill="#00286b" d="M 609.152344 766.246094 C 604.761719 766.246094 601.3125 762.796875 601.3125 758.40625 L 601.3125 645.835938 L 517.886719 645.835938 L 517.886719 758.40625 C 517.886719 762.796875 514.4375 766.246094 510.046875 766.246094 C 505.65625 766.246094 502.203125 762.796875 502.203125 758.40625 L 502.203125 637.996094 C 502.203125 633.605469 505.65625 630.15625 510.046875 630.15625 L 609.152344 630.15625 C 613.542969 630.15625 616.996094 633.605469 616.996094 637.996094 L 616.996094 758.40625 C 616.996094 762.640625 613.386719 766.246094 609.152344 766.246094 Z M 609.152344 766.246094 " fill-opacity="1" fill-rule="nonzero"/></g><path fill="#00286b" d="M 536.078125 601.933594 L 487.152344 601.933594 C 482.761719 601.933594 479.308594 598.484375 479.308594 594.09375 L 479.308594 331.632812 C 479.308594 327.242188 482.761719 323.792969 487.152344 323.792969 L 536.234375 323.792969 C 540.625 323.792969 544.074219 327.242188 544.074219 331.632812 L 544.074219 594.253906 C 543.917969 598.484375 540.46875 601.933594 536.078125 601.933594 Z M 494.992188 586.257812 L 528.394531 586.257812 L 528.394531 339.472656 L 494.992188 339.472656 Z M 494.992188 586.257812 " fill-opacity="1" fill-rule="nonzero"/><path fill="#00286b" d="M 632.050781 601.933594 L 582.964844 601.933594 C 578.574219 601.933594 575.125 598.484375 575.125 594.09375 L 575.125 331.632812 C 575.125 327.242188 578.574219 323.792969 582.964844 323.792969 L 632.050781 323.792969 C 636.441406 323.792969 639.890625 327.242188 639.890625 331.632812 L 639.890625 594.253906 C 639.890625 598.484375 636.28125 601.933594 632.050781 601.933594 Z M 590.804688 586.257812 L 624.207031 586.257812 L 624.207031 339.472656 L 590.804688 339.472656 Z M 590.804688 586.257812 " fill-opacity="1" fill-rule="nonzero"/><path fill="#00286b" d="M 536.078125 425.550781 L 487.152344 425.550781 C 482.761719 425.550781 479.308594 422.101562 479.308594 417.710938 C 479.308594 413.320312 482.761719 409.871094 487.152344 409.871094 L 536.234375 409.871094 C 540.625 409.871094 544.074219 413.320312 544.074219 417.710938 C 544.074219 422.101562 540.46875 425.550781 536.078125 425.550781 Z M 536.078125 425.550781 " fill-opacity="1" fill-rule="nonzero"/><path fill="#00286b" d="M 536.078125 515.859375 L 487.152344 515.859375 C 482.761719 515.859375 479.308594 512.410156 479.308594 508.019531 C 479.308594 503.628906 482.761719 500.179688 487.152344 500.179688 L 536.234375 500.179688 C 540.625 500.179688 544.074219 503.628906 544.074219 508.019531 C 544.074219 512.410156 540.46875 515.859375 536.078125 515.859375 Z M 536.078125 515.859375 " fill-opacity="1" fill-rule="nonzero"/><path fill="#00286b" d="M 632.050781 425.550781 L 582.964844 425.550781 C 578.574219 425.550781 575.125 422.101562 575.125 417.710938 C 575.125 413.320312 578.574219 409.871094 582.964844 409.871094 L 632.050781 409.871094 C 636.441406 409.871094 639.890625 413.320312 639.890625 417.710938 C 639.890625 422.101562 636.28125 425.550781 632.050781 425.550781 Z M 632.050781 425.550781 " fill-opacity="1" fill-rule="nonzero"/><path fill="#00286b" d="M 632.050781 515.859375 L 582.964844 515.859375 C 578.574219 515.859375 575.125 512.410156 575.125 508.019531 C 575.125 503.628906 578.574219 500.179688 582.964844 500.179688 L 632.050781 500.179688 C 636.441406 500.179688 639.890625 503.628906 639.890625 508.019531 C 639.890625 512.410156 636.28125 515.859375 632.050781 515.859375 Z M 632.050781 515.859375 " fill-opacity="1" fill-rule="nonzero"/><g clip-path="url(#09e7d60e48)"><path fill="#00286b" d="M 383.496094 766.246094 C 379.105469 766.246094 375.652344 762.796875 375.652344 758.40625 L 375.652344 695.222656 L 134.785156 695.222656 C 119.574219 695.222656 107.183594 707.609375 107.183594 722.816406 C 107.183594 738.027344 119.574219 750.410156 134.785156 750.410156 C 139.175781 750.410156 142.625 753.859375 142.625 758.25 C 142.625 762.640625 139.175781 766.089844 134.785156 766.089844 C 110.949219 766.089844 91.503906 746.648438 91.503906 722.816406 C 91.503906 698.984375 110.949219 679.542969 134.785156 679.542969 L 383.496094 679.542969 C 387.886719 679.542969 391.335938 682.992188 391.335938 687.382812 L 391.335938 758.40625 C 391.335938 762.640625 387.886719 766.246094 383.496094 766.246094 Z M 383.496094 766.246094 " fill-opacity="1" fill-rule="nonzero"/></g><path fill="#00286b" d="M 383.496094 730.65625 L 175.085938 730.65625 C 170.695312 730.65625 167.246094 727.207031 167.246094 722.816406 C 167.246094 718.425781 170.695312 714.976562 175.085938 714.976562 L 383.496094 714.976562 C 387.886719 714.976562 391.335938 718.425781 391.335938 722.816406 C 391.335938 727.207031 387.886719 730.65625 383.496094 730.65625 Z M 383.496094 730.65625 " fill-opacity="1" fill-rule="nonzero"/><path fill="#00286b" d="M 383.496094 695.222656 C 379.105469 695.222656 375.652344 691.773438 375.652344 687.382812 L 375.652344 624.199219 L 134.785156 624.199219 C 119.574219 624.199219 107.183594 636.585938 107.183594 651.792969 C 107.183594 667 119.574219 679.386719 134.785156 679.386719 C 139.175781 679.386719 142.625 682.835938 142.625 687.226562 C 142.625 691.617188 139.175781 695.066406 134.785156 695.066406 C 110.949219 695.066406 91.503906 675.625 91.503906 651.792969 C 91.503906 627.960938 110.949219 608.519531 134.785156 608.519531 L 383.496094 608.519531 C 387.886719 608.519531 391.335938 611.96875 391.335938 616.359375 L 391.335938 687.382812 C 391.335938 691.773438 387.886719 695.222656 383.496094 695.222656 Z M 383.496094 695.222656 " fill-opacity="1" fill-rule="nonzero"/><path fill="#00286b" d="M 383.496094 659.789062 L 175.085938 659.789062 C 170.695312 659.789062 167.246094 656.339844 167.246094 651.949219 C 167.246094 647.558594 170.695312 644.109375 175.085938 644.109375 L 383.496094 644.109375 C 387.886719 644.109375 391.335938 647.558594 391.335938 651.949219 C 391.335938 656.339844 387.886719 659.789062 383.496094 659.789062 Z M 383.496094 659.789062 " fill-opacity="1" fill-rule="nonzero"/><path fill="#00286b" d="M 241.417969 614.320312 C 240.007812 614.320312 238.753906 614.007812 237.5 613.222656 C 210.210938 597.386719 193.121094 565.246094 193.121094 529.027344 C 193.121094 492.8125 210.054688 460.667969 237.5 444.835938 C 240.007812 443.421875 242.988281 443.421875 245.339844 444.835938 C 272.625 460.667969 289.71875 492.96875 289.71875 529.027344 C 289.71875 565.089844 272.78125 597.386719 245.339844 613.222656 C 244.085938 614.007812 242.671875 614.320312 241.417969 614.320312 Z M 241.417969 460.984375 C 221.191406 474.78125 208.800781 500.335938 208.800781 529.027344 C 208.800781 557.71875 221.191406 583.277344 241.417969 597.074219 C 261.648438 583.277344 274.035156 557.71875 274.035156 529.027344 C 274.035156 500.335938 261.648438 474.78125 241.417969 460.984375 Z M 241.417969 460.984375 " fill-opacity="1" fill-rule="nonzero"/><path fill="#00286b" d="M 241.417969 614.320312 C 209.898438 614.320312 179.007812 594.878906 160.972656 563.523438 C 142.9375 532.164062 141.527344 495.945312 157.207031 468.507812 C 158.621094 466.15625 161.128906 464.589844 163.953125 464.589844 C 181.515625 464.589844 198.921875 470.390625 214.132812 481.523438 C 217.582031 484.03125 218.523438 488.890625 215.859375 492.496094 C 213.347656 495.945312 208.488281 496.886719 204.882812 494.222656 C 193.589844 486.070312 181.203125 481.367188 168.5 480.425781 C 157.835938 502.375 160.03125 530.753906 174.300781 555.683594 C 189.511719 582.179688 215.230469 598.484375 241.261719 598.640625 C 245.652344 598.640625 249.101562 602.089844 249.101562 606.480469 C 249.261719 610.871094 245.652344 614.320312 241.417969 614.320312 Z M 241.417969 614.320312 " fill-opacity="1" fill-rule="nonzero"/><path fill="#00286b" d="M 203 624.199219 C 185.4375 624.199219 167.089844 619.335938 150.308594 609.617188 C 119.101562 591.585938 99.65625 560.699219 99.65625 529.183594 C 99.65625 526.363281 101.070312 523.699219 103.578125 522.445312 C 118.789062 513.664062 136.664062 510.058594 155.484375 511.9375 C 159.875 512.410156 163.011719 516.171875 162.539062 520.5625 C 162.070312 524.953125 158.304688 528.089844 153.914062 527.617188 C 140.117188 526.207031 126.941406 528.402344 115.496094 533.890625 C 117.378906 558.191406 133.371094 581.710938 158.148438 596.132812 C 184.496094 611.34375 215.074219 612.753906 237.5 599.894531 C 241.261719 597.703125 245.96875 599.113281 248.164062 602.71875 C 250.359375 606.480469 249.101562 611.34375 245.339844 613.378906 C 232.636719 620.59375 218.054688 624.199219 203 624.199219 Z M 203 624.199219 " fill-opacity="1" fill-rule="nonzero"/><path fill="#00286b" d="M 241.417969 614.320312 C 237.027344 614.320312 233.578125 610.871094 233.578125 606.480469 C 233.578125 602.089844 237.027344 598.640625 241.417969 598.640625 C 267.449219 598.640625 293.011719 582.179688 308.378906 555.683594 C 322.648438 530.753906 324.84375 502.375 314.183594 480.425781 C 301.480469 481.367188 289.089844 486.070312 277.800781 494.222656 C 274.351562 496.730469 269.332031 495.945312 266.824219 492.496094 C 264.3125 489.046875 265.097656 484.03125 268.546875 481.523438 C 283.757812 470.546875 301.167969 464.589844 318.730469 464.589844 C 321.550781 464.589844 324.0625 466.15625 325.472656 468.507812 C 341.3125 495.945312 339.742188 532.320312 321.710938 563.523438 C 303.675781 594.722656 272.9375 614.320312 241.417969 614.320312 Z M 241.417969 614.320312 " fill-opacity="1" fill-rule="nonzero"/><path fill="#00286b" d="M 279.839844 624.199219 C 264.785156 624.199219 250.199219 620.59375 237.5 613.222656 C 233.734375 611.027344 232.480469 606.324219 234.675781 602.5625 C 236.871094 598.800781 241.574219 597.542969 245.339844 599.738281 C 267.921875 612.753906 298.34375 611.34375 324.6875 595.976562 C 349.621094 581.710938 365.617188 558.191406 367.34375 533.730469 C 355.894531 528.246094 342.722656 526.050781 328.921875 527.460938 C 324.53125 527.929688 320.769531 524.796875 320.296875 520.40625 C 319.828125 516.015625 322.964844 512.253906 327.355469 511.78125 C 346.015625 509.902344 364.050781 513.507812 379.261719 522.285156 C 381.769531 523.699219 383.179688 526.207031 383.179688 529.027344 C 383.179688 560.542969 363.734375 591.429688 332.53125 609.460938 C 315.75 619.339844 297.402344 624.199219 279.839844 624.199219 Z M 279.839844 624.199219 " fill-opacity="1" fill-rule="nonzero"/><g clip-path="url(#d178066632)"><path fill="#00286b" d="M 223.855469 226.429688 C 220.40625 226.429688 217.269531 224.234375 216.328125 220.785156 C 214.605469 214.828125 211.46875 207.617188 208.175781 199.777344 C 198.453125 177.199219 187.472656 151.800781 199.078125 134.238281 C 206.136719 123.421875 219.933594 118.246094 241.261719 118.246094 C 259.765625 118.246094 272.46875 122.167969 280.308594 130.320312 C 286.113281 136.277344 288.777344 144.429688 288.464844 154.308594 C 288.308594 158.699219 284.699219 161.992188 280.308594 161.832031 C 275.917969 161.675781 272.625 158.070312 272.78125 153.679688 C 272.9375 148.035156 271.839844 144.117188 269.019531 141.292969 C 264.472656 136.589844 254.90625 134.082031 241.261719 134.082031 C 230.597656 134.082031 216.957031 135.652344 212.09375 143.019531 C 205.195312 153.523438 214.761719 175.789062 222.445312 193.820312 C 225.894531 201.972656 229.34375 209.8125 231.226562 216.550781 C 232.480469 220.785156 229.972656 225.019531 225.894531 226.273438 C 225.425781 226.273438 224.640625 226.429688 223.855469 226.429688 Z M 223.855469 226.429688 " fill-opacity="1" fill-rule="nonzero"/></g><path fill="#00286b" d="M 241.417969 291.652344 C 217.898438 291.652344 198.609375 272.527344 198.609375 248.851562 C 198.609375 225.175781 217.738281 206.046875 241.417969 206.046875 C 265.097656 206.046875 284.230469 225.175781 284.230469 248.851562 C 284.230469 272.527344 264.941406 291.652344 241.417969 291.652344 Z M 241.417969 221.726562 C 226.523438 221.726562 214.289062 233.957031 214.289062 248.851562 C 214.289062 263.746094 226.523438 275.976562 241.417969 275.976562 C 256.316406 275.976562 268.546875 263.746094 268.546875 248.851562 C 268.546875 233.957031 256.316406 221.726562 241.417969 221.726562 Z M 241.417969 221.726562 " fill-opacity="1" fill-rule="nonzero"/><path fill="#00286b" d="M 207.703125 247.597656 C 206.449219 247.597656 205.195312 247.28125 203.941406 246.65625 C 198.453125 243.675781 191.082031 240.699219 183.242188 237.5625 C 160.503906 228.46875 134.628906 218.121094 130.394531 197.582031 C 127.726562 184.882812 133.84375 171.398438 148.898438 156.347656 C 161.914062 143.332031 173.832031 137.0625 184.964844 137.21875 C 193.277344 137.375 200.960938 141.136719 207.546875 148.351562 C 210.527344 151.484375 210.371094 156.503906 207.078125 159.480469 C 203.941406 162.460938 198.921875 162.304688 195.941406 159.011719 C 192.179688 154.933594 188.414062 152.898438 184.496094 152.898438 C 177.910156 152.742188 169.441406 157.757812 159.71875 167.476562 C 152.191406 175.003906 143.566406 185.824219 145.449219 194.445312 C 147.957031 206.675781 170.539062 215.769531 188.730469 222.980469 C 197.039062 226.273438 204.882812 229.410156 210.996094 232.859375 C 214.761719 234.898438 216.171875 239.757812 214.132812 243.519531 C 213.035156 246.183594 210.371094 247.597656 207.703125 247.597656 Z M 207.703125 247.597656 " fill-opacity="1" fill-rule="nonzero"/><path fill="#00286b" d="M 144.820312 296.042969 C 138.234375 296.042969 132.117188 294.632812 126.785156 291.027344 C 115.964844 283.972656 110.792969 270.171875 110.792969 248.695312 C 110.792969 230.191406 114.710938 217.492188 122.867188 209.652344 C 128.824219 203.851562 136.824219 201.1875 146.859375 201.5 C 151.25 201.65625 154.542969 205.265625 154.386719 209.652344 C 154.230469 214.042969 150.621094 217.335938 146.230469 217.179688 C 140.585938 217.023438 136.664062 218.121094 133.84375 220.941406 C 129.140625 225.488281 126.628906 235.054688 126.628906 248.695312 C 126.628906 259.355469 128.199219 272.996094 135.566406 277.855469 C 146.074219 284.753906 168.34375 275.191406 186.375 267.507812 C 194.53125 264.058594 202.214844 260.609375 209.113281 258.726562 C 213.191406 257.472656 217.582031 259.824219 218.835938 264.058594 C 220.09375 268.136719 217.582031 272.527344 213.507812 273.78125 C 207.546875 275.503906 200.332031 278.640625 192.492188 281.933594 C 176.8125 288.675781 159.71875 296.042969 144.820312 296.042969 Z M 144.820312 296.042969 " fill-opacity="1" fill-rule="nonzero"/><path fill="#00286b" d="M 184.496094 360.324219 C 173.519531 360.324219 161.914062 354.054688 149.054688 341.199219 C 136.039062 328.183594 129.765625 316.269531 129.921875 305.136719 C 130.078125 296.828125 133.84375 289.144531 141.058594 282.558594 C 144.191406 279.582031 149.210938 279.738281 152.191406 283.03125 C 155.171875 286.324219 155.011719 291.183594 151.71875 294.160156 C 147.644531 297.925781 145.605469 301.6875 145.605469 305.609375 C 145.449219 312.191406 150.464844 320.660156 160.1875 330.378906 C 167.714844 337.90625 178.535156 346.527344 187.160156 344.648438 C 199.390625 342.140625 208.488281 319.5625 215.703125 301.375 C 218.996094 293.066406 222.128906 285.226562 225.582031 279.109375 C 227.621094 275.347656 232.480469 273.9375 236.246094 275.976562 C 240.007812 278.011719 241.417969 282.875 239.378906 286.636719 C 236.402344 292.125 233.421875 299.492188 230.285156 307.175781 C 221.191406 329.910156 210.839844 355.621094 190.296875 359.855469 C 188.414062 360.167969 186.375 360.324219 184.496094 360.324219 Z M 184.496094 360.324219 " fill-opacity="1" fill-rule="nonzero"/><path fill="#00286b" d="M 241.417969 379.453125 C 222.914062 379.453125 210.210938 375.535156 202.371094 367.382812 C 196.570312 361.421875 193.902344 353.269531 194.21875 343.394531 C 194.375 339.003906 197.980469 335.710938 202.371094 335.867188 C 206.761719 336.023438 210.054688 339.628906 209.898438 344.019531 C 209.742188 349.664062 210.839844 353.585938 213.664062 356.40625 C 218.210938 361.109375 227.777344 363.617188 241.417969 363.617188 C 252.082031 363.617188 265.726562 362.050781 270.585938 354.683594 C 277.488281 344.175781 267.921875 321.914062 260.238281 303.882812 C 256.789062 295.730469 253.335938 288.046875 251.457031 281.148438 C 250.199219 277.070312 252.710938 272.683594 256.789062 271.429688 C 260.863281 270.171875 265.253906 272.527344 266.511719 276.757812 C 268.234375 282.714844 271.371094 289.929688 274.664062 297.769531 C 284.386719 320.34375 295.207031 345.746094 283.757812 363.304688 C 276.546875 374.125 262.746094 379.453125 241.417969 379.453125 Z M 241.417969 379.453125 " fill-opacity="1" fill-rule="nonzero"/><path fill="#00286b" d="M 298.1875 360.324219 C 298.03125 360.324219 297.875 360.324219 297.558594 360.324219 C 289.25 360.167969 281.5625 356.40625 274.976562 349.195312 C 272 346.058594 272.15625 341.042969 275.449219 338.0625 C 278.742188 335.082031 283.601562 335.238281 286.582031 338.53125 C 290.347656 342.609375 294.109375 344.648438 298.03125 344.648438 C 304.617188 344.804688 313.085938 339.785156 322.808594 330.066406 C 330.335938 322.539062 338.960938 311.878906 337.078125 303.097656 C 334.566406 290.710938 311.988281 281.777344 293.796875 274.5625 C 285.484375 271.269531 277.644531 268.136719 271.527344 264.6875 C 267.765625 262.648438 266.351562 257.789062 268.390625 254.023438 C 270.429688 250.261719 275.292969 248.851562 279.054688 250.890625 C 284.542969 253.867188 291.914062 256.847656 299.597656 259.984375 C 322.335938 269.074219 348.054688 279.425781 352.289062 299.964844 C 354.953125 312.664062 348.839844 325.988281 333.785156 341.199219 C 320.925781 354.054688 309.320312 360.324219 298.1875 360.324219 Z M 298.1875 360.324219 " fill-opacity="1" fill-rule="nonzero"/><path fill="#00286b" d="M 337.863281 296.042969 C 337.234375 296.042969 336.605469 296.042969 336.136719 296.042969 C 331.746094 295.886719 328.453125 292.28125 328.609375 287.890625 C 328.765625 283.5 332.371094 280.207031 336.761719 280.363281 C 342.410156 280.523438 346.328125 279.425781 349.152344 276.601562 C 353.855469 272.054688 356.367188 262.492188 356.367188 248.851562 C 356.367188 238.1875 354.796875 224.546875 347.425781 219.6875 C 336.921875 212.789062 314.652344 222.355469 296.617188 230.035156 C 288.464844 233.484375 280.78125 236.933594 273.878906 238.816406 C 269.804688 240.070312 265.414062 237.71875 264.15625 233.484375 C 262.902344 229.253906 265.414062 225.019531 269.488281 223.765625 C 275.449219 222.039062 282.660156 218.90625 290.503906 215.613281 C 313.085938 205.890625 338.488281 194.914062 356.050781 206.519531 C 366.871094 213.574219 372.046875 227.371094 372.046875 248.695312 C 372.046875 267.195312 368.125 280.050781 359.972656 287.734375 C 354.328125 293.378906 346.957031 296.042969 337.863281 296.042969 Z M 337.863281 296.042969 " fill-opacity="1" fill-rule="nonzero"/><path fill="#00286b" d="M 250.359375 222.980469 C 249.101562 222.980469 247.847656 222.667969 246.59375 222.039062 C 242.832031 220 241.417969 215.140625 243.457031 211.378906 C 246.4375 205.890625 249.417969 198.523438 252.554688 190.683594 C 261.648438 167.949219 272 142.078125 292.542969 137.84375 C 305.242188 135.179688 318.574219 141.292969 333.785156 156.347656 C 346.800781 169.359375 353.074219 181.277344 352.914062 192.40625 C 352.757812 200.71875 348.996094 208.398438 341.78125 214.984375 C 338.644531 217.964844 333.628906 217.808594 330.648438 214.515625 C 327.667969 211.378906 327.824219 206.363281 331.117188 203.382812 C 335.195312 199.621094 337.234375 195.855469 337.234375 191.9375 C 337.390625 185.351562 332.371094 176.886719 322.648438 167.164062 C 315.121094 159.640625 304.460938 151.015625 295.679688 152.898438 C 283.289062 155.40625 274.351562 177.984375 267.136719 196.171875 C 263.84375 204.480469 260.707031 212.320312 257.257812 218.433594 C 255.847656 221.414062 253.179688 222.980469 250.359375 222.980469 Z M 250.359375 222.980469 " fill-opacity="1" fill-rule="nonzero"/><g clip-path="url(#ce73916712)"><path fill="#00286b" d="M 681.601562 766.246094 L 437.597656 766.246094 C 433.207031 766.246094 429.753906 762.796875 429.753906 758.40625 L 429.753906 287.734375 C 429.753906 283.34375 433.207031 279.894531 437.597656 279.894531 C 441.988281 279.894531 445.4375 283.34375 445.4375 287.734375 L 445.4375 750.410156 L 673.761719 750.410156 L 673.761719 287.734375 C 673.761719 283.34375 677.210938 279.894531 681.601562 279.894531 C 685.992188 279.894531 689.445312 283.34375 689.445312 287.734375 L 689.445312 758.25 C 689.445312 762.640625 685.835938 766.246094 681.601562 766.246094 Z M 681.601562 766.246094 " fill-opacity="1" fill-rule="nonzero"/></g></svg>